<svg width="531" height="148" viewBox="0 0 531 148" fill="none" xmlns="http://www.w3.org/2000/svg">
<g filter="url(#filter0_d_358_39)">
<path d="M14.3809 51.0859L34.9473 47.4824L35.4746 64.0938V74.1133L60.875 69.4551C64.4492 63.7715 66.2363 57.2969 66.2363 50.0312C66.2363 48.0977 66.0605 46.2812 65.709 44.582C51.2949 40.5391 30.9043 38.5176 4.53711 38.5176L7.70117 17.5996C33.7754 17.9512 56.0996 20.1191 74.6738 24.1035C77.4277 24.8066 80.4746 27.8242 83.8145 33.1562C86.9785 38.1953 88.5605 41.7109 88.5605 43.7031C88.5605 45.6953 88.4141 47.8047 88.1211 50.0312C87.8281 52.1992 87.3887 54.543 86.8027 57.0625C84.6348 66.3789 82.291 72.1797 79.7715 74.4648C78.1309 75.9883 73.502 77.9219 65.8848 80.2656L65.709 80.9688L83.1992 88.8789C84.0195 92.3945 84.4297 95.8809 84.4297 99.3379C84.4297 102.736 84.2246 105.725 83.8145 108.303C83.4043 110.881 82.9062 113.312 82.3203 115.598C80.3281 122.746 78.1895 127.082 75.9043 128.605C72.2715 131.008 58.4727 133.293 34.5078 135.461C27.0664 136.105 21.207 136.486 16.9297 136.604L14.3809 51.0859ZM36.7051 118.059C47.5449 117.121 55.4551 115.861 60.4355 114.279C62.252 108.303 63.1602 103.82 63.1602 100.832C63.1602 97.7852 63.0723 95.5 62.8965 93.9766C62.7793 92.3945 62.2812 91.252 61.4023 90.5488L36.1777 88L36.7051 118.059ZM168.014 139.328C143.873 136.867 124.947 133.205 111.236 128.342C108.717 127.404 107.047 122.014 106.227 112.17C105.523 103.146 106.285 95.3242 108.512 88.7031C109.449 85.9492 110.562 84.4258 111.852 84.1328C117.359 82.668 123.16 81.6133 129.254 80.9688L147.535 78.9473L147.184 66.5547C140.797 65.3242 134.439 64.3574 128.111 63.6543C121.842 62.8926 115.602 62.0137 109.391 61.0176L114.049 41.7695L128.902 43.9668C142.496 45.959 153.307 48.3906 161.334 51.2617C165.201 52.668 167.135 55.5098 167.135 59.7871L167.486 107.951L148.766 109.797L148.238 94.7676L143.229 95.7344C137.604 96.6719 132.242 97.8438 127.145 99.25C126.5 102.355 126.178 104.934 126.178 106.984C126.178 109.973 126.295 112.287 126.529 113.928C134.791 115.803 147.535 117.707 164.762 119.641L171.969 120.432L168.014 139.328ZM189.283 25.6855L210.729 21.5547V49.1523L232.789 45.0215L234.459 64.9727L211.08 66.7305L209.41 114.279C213.746 115.627 217.496 116.682 220.66 117.443C228.57 119.318 233.404 120.49 235.162 120.959L230.504 139.328C217.496 136.457 206.1 133.146 196.314 129.396C192.33 127.932 190.338 125.295 190.338 121.486L189.283 25.6855ZM255.553 51.0859L276.119 47.4824L276.646 64.0938V74.1133L302.047 69.4551C305.621 63.7715 307.408 57.2969 307.408 50.0312C307.408 48.0977 307.232 46.2812 306.881 44.582C292.467 40.5391 272.076 38.5176 245.709 38.5176L248.873 17.5996C274.947 17.9512 297.271 20.1191 315.846 24.1035C318.6 24.8066 321.646 27.8242 324.986 33.1562C328.15 38.1953 329.732 41.7109 329.732 43.7031C329.732 45.6953 329.586 47.8047 329.293 50.0312C329 52.1992 328.561 54.543 327.975 57.0625C325.807 66.3789 323.463 72.1797 320.943 74.4648C319.303 75.9883 314.674 77.9219 307.057 80.2656L306.881 80.9688L324.371 88.8789C325.191 92.3945 325.602 95.8809 325.602 99.3379C325.602 102.736 325.396 105.725 324.986 108.303C324.576 110.881 324.078 113.312 323.492 115.598C321.5 122.746 319.361 127.082 317.076 128.605C313.443 131.008 299.645 133.293 275.68 135.461C268.238 136.105 262.379 136.486 258.102 136.604L255.553 51.0859ZM277.877 118.059C288.717 117.121 296.627 115.861 301.607 114.279C303.424 108.303 304.332 103.82 304.332 100.832C304.332 97.7852 304.244 95.5 304.068 93.9766C303.951 92.3945 303.453 91.252 302.574 90.5488L277.35 88L277.877 118.059ZM373.326 0.724609C373.971 3.00977 374.293 5.58789 374.293 8.45898C374.293 11.2715 374.205 13.6738 374.029 15.666C373.854 17.5996 373.648 19.416 373.414 21.1152C372.828 24.8066 372.154 27.3262 371.393 28.6738L351.178 27.7949C352.174 22.6387 352.672 14.4063 352.672 3.09766L373.326 0.724609ZM372.623 45.0215C372.916 51.0566 373.062 56.125 373.062 60.2266C373.062 64.3281 372.975 69.1328 372.799 74.6406L370.777 133L352.057 134.582L350.299 47.834L372.623 45.0215ZM396.881 64.7969L396.705 48.5371L415.426 46.6035L418.502 59.9629L431.949 45.1973H442.408L446.803 65.7637C446.803 65.7637 442.203 66.7598 433.004 68.752C428.609 69.6895 424.068 70.7148 419.381 71.8281L418.15 131.945L398.287 133.703L396.881 64.7969ZM463.678 128.693C460.807 128.107 459.049 125.559 458.404 121.047C457.35 113.43 456.822 105.344 456.822 96.7891C456.822 82.4336 458.023 68.957 460.426 56.3594C461.012 53.3125 462.477 51.3789 464.82 50.5586L473.609 48.4492C483.043 46.1641 492.154 44.4648 500.943 43.3516V7.31641L521.334 3.53711L521.861 44.0547L520.016 105.842L501.471 107.6L500.768 62.4238C493.678 62.9512 487.027 64.3867 480.816 66.7305C479.117 77.2188 478.268 85.8906 478.268 92.7461C478.268 102.531 478.502 109.123 478.971 112.521C486.295 114.455 495.025 116.096 505.162 117.443C515.357 118.791 522.359 119.787 526.168 120.432L520.719 139.328C497.984 135.754 483.951 133.41 478.619 132.297C473.346 131.184 468.365 129.982 463.678 128.693Z" fill="white" shape-rendering="crispEdges"/>
<path d="M14.3809 51.0859L13.8631 48.131C12.3945 48.3883 11.3378 49.685 11.3822 51.1753L14.3809 51.0859ZM34.9473 47.4824L37.9458 47.3872C37.9182 46.5181 37.5148 45.7037 36.8402 45.155C36.1656 44.6063 35.286 44.3774 34.4295 44.5274L34.9473 47.4824ZM35.4746 64.0938H38.4746C38.4746 64.062 38.4741 64.0303 38.4731 63.9986L35.4746 64.0938ZM35.4746 74.1133H32.4746C32.4746 75.0037 32.8701 75.848 33.5541 76.418C34.2381 76.988 35.14 77.2247 36.0158 77.0641L35.4746 74.1133ZM60.875 69.4551L61.4161 72.4059C62.2424 72.2543 62.9674 71.7633 63.4146 71.0521L60.875 69.4551ZM65.709 44.582L68.6468 43.9742C68.4196 42.8761 67.5989 41.9964 66.5192 41.6935L65.709 44.582ZM4.53711 38.5176L1.57085 38.0689C1.44014 38.9331 1.69277 39.8112 2.26268 40.4738C2.8326 41.1364 3.66313 41.5176 4.53711 41.5176V38.5176ZM7.70117 17.5996L7.74162 14.5999C6.24281 14.5797 4.95909 15.6688 4.73491 17.1509L7.70117 17.5996ZM74.6738 24.1035L75.416 21.1968C75.3785 21.1872 75.3409 21.1784 75.303 21.1702L74.6738 24.1035ZM83.8145 33.1562L81.272 34.7488L81.2738 34.7516L83.8145 33.1562ZM88.1211 50.0312L91.0941 50.433L91.0955 50.4226L88.1211 50.0312ZM86.8027 57.0625L89.7247 57.7424L89.7248 57.742L86.8027 57.0625ZM79.7715 74.4648L77.756 72.2427C77.7474 72.2506 77.7387 72.2585 77.7301 72.2665L79.7715 74.4648ZM65.8848 80.2656L65.0025 77.3983C63.9984 77.7072 63.2291 78.5189 62.9743 79.538L65.8848 80.2656ZM65.709 80.9688L62.7986 80.2411C62.4469 81.6478 63.1516 83.1047 64.4728 83.7022L65.709 80.9688ZM83.1992 88.8789L86.1207 88.1972C85.9087 87.2884 85.2858 86.53 84.4355 86.1455L83.1992 88.8789ZM82.3203 115.598L85.2102 116.403C85.2158 116.383 85.2211 116.363 85.2263 116.343L82.3203 115.598ZM75.9043 128.605L77.5591 131.108L77.5684 131.102L75.9043 128.605ZM34.5078 135.461L34.7667 138.45L34.7781 138.449L34.5078 135.461ZM16.9297 136.604L13.931 136.693C13.9803 138.346 15.3584 139.648 17.0118 139.602L16.9297 136.604ZM36.7051 118.059L33.7055 118.111C33.7201 118.943 34.0791 119.73 34.6967 120.287C35.3143 120.844 36.1352 121.119 36.9636 121.047L36.7051 118.059ZM60.4355 114.279L61.3438 117.139C62.285 116.84 63.0187 116.097 63.3059 115.152L60.4355 114.279ZM62.8965 93.9766L59.9047 94.1982C59.9077 94.239 59.9116 94.2798 59.9163 94.3204L62.8965 93.9766ZM61.4023 90.5488L63.2764 88.2062C62.8251 87.8451 62.279 87.6221 61.7039 87.564L61.4023 90.5488ZM36.1777 88L36.4793 85.0152C35.6264 84.929 34.7773 85.2119 34.1464 85.7923C33.5156 86.3728 33.1632 87.1955 33.1782 88.0526L36.1777 88ZM14.8986 54.0409L35.465 50.4374L34.4295 44.5274L13.8631 48.131L14.8986 54.0409ZM31.9488 47.5776L32.4761 64.1889L38.4731 63.9986L37.9458 47.3872L31.9488 47.5776ZM32.4746 64.0938V74.1133H38.4746V64.0938H32.4746ZM36.0158 77.0641L61.4161 72.4059L60.3339 66.5043L34.9335 71.1625L36.0158 77.0641ZM63.4146 71.0521C67.3143 64.8509 69.2363 57.8137 69.2363 50.0312H63.2363C63.2363 56.7801 61.5841 62.6921 58.3354 67.858L63.4146 71.0521ZM69.2363 50.0312C69.2363 47.9163 69.0441 45.8946 68.6468 43.9742L62.7712 45.1898C63.077 46.6679 63.2363 48.279 63.2363 50.0312H69.2363ZM66.5192 41.6935C51.7143 37.5409 31.004 35.5176 4.53711 35.5176V41.5176C30.8046 41.5176 50.8755 43.5372 64.8988 47.4706L66.5192 41.6935ZM7.50337 38.9663L10.6674 18.0483L4.73491 17.1509L1.57085 38.0689L7.50337 38.9663ZM7.66073 20.5993C33.6045 20.9491 55.7204 23.106 74.0446 27.0368L75.303 21.1702C56.4788 17.1322 33.9462 14.9532 7.74162 14.5999L7.66073 20.5993ZM73.9317 27.0103C74.5929 27.1791 75.5907 27.7156 76.9134 29.0256C78.2159 30.3156 79.6734 32.1965 81.272 34.7488L86.3569 31.5637C84.6157 28.784 82.8798 26.49 81.1355 24.7625C79.4112 23.0549 77.5086 21.7311 75.416 21.1968L73.9317 27.0103ZM81.2738 34.7516C82.8173 37.2097 83.9255 39.2194 84.6383 40.8034C85.3879 42.4691 85.5605 43.3662 85.5605 43.7031H91.5605C91.5605 42.0479 90.9422 40.191 90.1098 38.3412C89.2405 36.4095 87.9757 34.1418 86.3551 31.5609L81.2738 34.7516ZM85.5605 43.7031C85.5605 45.5492 85.4247 47.527 85.1467 49.6399L91.0955 50.4226C91.4034 48.0823 91.5605 45.8414 91.5605 43.7031H85.5605ZM85.1481 49.6295C84.8698 51.6891 84.449 53.9392 83.8807 56.383L89.7248 57.742C90.3283 55.1468 90.7865 52.7093 91.0941 50.433L85.1481 49.6295ZM83.8808 56.3826C82.8157 60.9596 81.7292 64.5745 80.6374 67.2765C79.5158 70.0526 78.506 71.5625 77.756 72.2427L81.7869 76.687C83.5565 75.082 84.9784 72.5489 86.2005 69.5242C87.4525 66.4255 88.6218 62.4818 89.7247 57.7424L83.8808 56.3826ZM77.7301 72.2665C77.3328 72.6354 76.2051 73.332 73.913 74.2894C71.7245 75.2036 68.7653 76.2405 65.0025 77.3983L66.767 83.133C70.6214 81.947 73.7853 80.8452 76.2257 79.8258C78.5624 78.8497 80.5695 77.8177 81.8128 76.6632L77.7301 72.2665ZM62.9743 79.538L62.7986 80.2411L68.6194 81.6964L68.7952 80.9932L62.9743 79.538ZM64.4728 83.7022L81.963 91.6124L84.4355 86.1455L66.9452 78.2353L64.4728 83.7022ZM80.2777 89.5606C81.0482 92.8626 81.4297 96.1203 81.4297 99.3379H87.4297C87.4297 95.6414 86.9909 91.9264 86.1207 88.1972L80.2777 89.5606ZM81.4297 99.3379C81.4297 102.623 81.231 105.448 80.8517 107.831L86.7772 108.774C87.2183 106.002 87.4297 102.85 87.4297 99.3379H81.4297ZM80.8517 107.831C80.4547 110.327 79.9748 112.667 79.4143 114.853L85.2263 116.343C85.8377 113.958 86.3539 111.435 86.7772 108.774L80.8517 107.831ZM79.4304 114.792C78.4609 118.271 77.4871 120.947 76.5317 122.884C75.542 124.89 74.7246 125.786 74.2402 126.109L77.5684 131.102C79.3692 129.901 80.7637 127.868 81.9127 125.538C83.0959 123.139 84.1875 120.073 85.2102 116.403L79.4304 114.792ZM74.2495 126.103C73.7679 126.422 72.622 126.916 70.4945 127.488C68.4475 128.039 65.7394 128.599 62.3404 129.161C55.5475 130.286 46.1905 131.392 34.2375 132.473L34.7781 138.449C46.7899 137.362 56.3148 136.241 63.3207 135.081C66.8211 134.501 69.7417 133.904 72.0526 133.282C74.283 132.683 76.2243 131.99 77.5591 131.108L74.2495 126.103ZM34.2489 132.472C26.83 133.115 21.0382 133.49 16.8475 133.605L17.0118 139.602C21.3759 139.483 27.3028 139.096 34.7667 138.45L34.2489 132.472ZM19.9284 136.514L17.3795 50.9966L11.3822 51.1753L13.931 136.693L19.9284 136.514ZM36.9636 121.047C47.8404 120.107 56.0289 118.827 61.3438 117.139L59.5273 111.42C54.8813 112.896 47.2494 114.135 36.4466 115.07L36.9636 121.047ZM63.3059 115.152C65.1358 109.131 66.1602 104.29 66.1602 100.832H60.1602C60.1602 103.35 59.3681 107.475 57.5652 113.407L63.3059 115.152ZM66.1602 100.832C66.1602 97.7589 66.0729 95.3334 65.8767 93.6327L59.9163 94.3204C60.0716 95.6666 60.1602 97.8114 60.1602 100.832H66.1602ZM65.8883 93.7549C65.7353 91.69 65.0368 89.6145 63.2764 88.2062L59.5283 92.8914C59.5476 92.9069 59.6094 92.9585 59.685 93.1319C59.7678 93.322 59.8646 93.6566 59.9047 94.1982L65.8883 93.7549ZM61.7039 87.564L36.4793 85.0152L35.8761 90.9848L61.1007 93.5336L61.7039 87.564ZM33.1782 88.0526L33.7055 118.111L39.7046 118.006L39.1773 87.9474L33.1782 88.0526ZM168.014 139.328L167.709 142.313C169.237 142.468 170.635 141.446 170.95 139.943L168.014 139.328ZM111.236 128.342L110.19 131.153C110.205 131.159 110.219 131.164 110.233 131.169L111.236 128.342ZM106.227 112.17L103.236 112.403C103.236 112.408 103.236 112.414 103.237 112.419L106.227 112.17ZM108.512 88.7031L105.672 87.7363L105.668 87.7469L108.512 88.7031ZM111.852 84.1328L112.516 87.0582C112.552 87.0501 112.587 87.0414 112.623 87.032L111.852 84.1328ZM129.254 80.9688L129.569 83.9521C129.574 83.9516 129.579 83.9511 129.584 83.9506L129.254 80.9688ZM147.535 78.9473L147.865 81.9291C149.417 81.7574 150.578 80.4234 150.534 78.8622L147.535 78.9473ZM147.184 66.5547L150.182 66.4696C150.143 65.0641 149.132 63.8749 147.751 63.6089L147.184 66.5547ZM128.111 63.6543L127.75 66.6324C127.76 66.6336 127.77 66.6348 127.78 66.6359L128.111 63.6543ZM109.391 61.0176L106.475 60.3119C106.278 61.1249 106.43 61.9832 106.893 62.6796C107.356 63.376 108.09 63.8473 108.916 63.9797L109.391 61.0176ZM114.049 41.7695L114.488 38.8018C112.953 38.5748 111.498 39.5557 111.133 41.0639L114.049 41.7695ZM128.902 43.9668L128.463 46.9345L128.467 46.9351L128.902 43.9668ZM161.334 51.2617L162.359 48.4423C162.354 48.4405 162.349 48.4387 162.344 48.437L161.334 51.2617ZM167.135 59.7871H164.135C164.135 59.7944 164.135 59.8017 164.135 59.809L167.135 59.7871ZM167.486 107.951L167.781 110.937C169.324 110.784 170.498 109.48 170.486 107.929L167.486 107.951ZM148.766 109.797L145.767 109.902C145.797 110.73 146.167 111.509 146.79 112.055C147.414 112.6 148.235 112.864 149.06 112.782L148.766 109.797ZM148.238 94.7676L151.236 94.6624C151.206 93.7861 150.793 92.9671 150.107 92.4209C149.421 91.8746 148.531 91.6558 147.67 91.8219L148.238 94.7676ZM143.229 95.7344L143.722 98.6936C143.747 98.6894 143.772 98.6849 143.797 98.68L143.229 95.7344ZM127.145 99.25L126.347 96.358C125.262 96.6573 124.436 97.5385 124.207 98.6404L127.145 99.25ZM126.529 113.928L123.559 114.352C123.735 115.583 124.653 116.578 125.865 116.853L126.529 113.928ZM164.762 119.641L164.427 122.622L164.434 122.623L164.762 119.641ZM171.969 120.432L174.905 121.046C175.078 120.218 174.894 119.355 174.397 118.67C173.9 117.985 173.137 117.542 172.296 117.45L171.969 120.432ZM168.318 136.344C144.28 133.893 125.624 130.262 112.239 125.514L110.233 131.169C124.27 136.148 143.466 139.841 167.709 142.313L168.318 136.344ZM112.283 125.53C112.448 125.592 112.32 125.62 112.007 125.148C111.697 124.679 111.33 123.902 110.96 122.708C110.22 120.319 109.62 116.761 109.216 111.921L103.237 112.419C103.654 117.422 104.299 121.482 105.229 124.483C105.694 125.984 106.267 127.346 107.004 128.46C107.739 129.569 108.765 130.623 110.19 131.153L112.283 125.53ZM109.217 111.937C108.537 103.202 109.289 95.803 111.355 89.6594L105.668 87.7469C103.281 94.8455 102.51 103.091 103.236 112.403L109.217 111.937ZM111.352 89.6699C111.77 88.4425 112.164 87.6869 112.472 87.2652C112.782 86.8413 112.828 86.9875 112.516 87.0582L111.187 81.2074C109.586 81.5711 108.431 82.6255 107.628 83.7251C106.823 84.8268 106.191 86.2099 105.672 87.7363L111.352 89.6699ZM112.623 87.032C117.97 85.6098 123.618 84.5816 129.569 83.9521L128.938 77.9854C122.702 78.645 116.748 79.7262 111.08 81.2336L112.623 87.032ZM129.584 83.9506L147.865 81.9291L147.205 75.9654L128.924 77.9869L129.584 83.9506ZM150.534 78.8622L150.182 66.4696L144.185 66.6398L144.536 79.0323L150.534 78.8622ZM147.751 63.6089C141.288 62.3636 134.852 61.3848 128.443 60.6726L127.78 66.6359C134.027 67.3301 140.306 68.2848 146.616 69.5005L147.751 63.6089ZM128.473 60.6762C122.241 59.9191 116.039 59.0455 109.866 58.0554L108.916 63.9797C115.164 64.9819 121.442 65.8661 127.75 66.6324L128.473 60.6762ZM112.306 61.7232L116.965 42.4752L111.133 41.0639L106.475 60.3119L112.306 61.7232ZM113.61 44.7372L128.463 46.9345L129.341 40.9991L114.488 38.8018L113.61 44.7372ZM128.467 46.9351C141.968 48.9137 152.561 51.3099 160.324 54.0865L162.344 48.437C154.053 45.4714 143.024 43.0043 129.337 40.9985L128.467 46.9351ZM160.309 54.0811C161.77 54.6125 162.657 55.3312 163.204 56.1354C163.758 56.949 164.135 58.1025 164.135 59.7871H170.135C170.135 57.1944 169.545 54.7884 168.165 52.7601C166.778 50.7225 164.765 49.3172 162.359 48.4423L160.309 54.0811ZM164.135 59.809L164.486 107.973L170.486 107.929L170.135 59.7652L164.135 59.809ZM167.192 104.966L148.471 106.811L149.06 112.782L167.781 110.937L167.192 104.966ZM151.764 109.692L151.236 94.6624L145.24 94.8728L145.767 109.902L151.764 109.692ZM147.67 91.8219L142.66 92.7887L143.797 98.68L148.807 97.7132L147.67 91.8219ZM142.735 92.7752C137.016 93.7285 131.552 94.9221 126.347 96.358L127.942 102.142C132.932 100.765 138.191 99.6153 143.722 98.6936L142.735 92.7752ZM124.207 98.6404C123.541 101.85 123.178 104.65 123.178 106.984H129.178C129.178 105.218 129.459 102.861 130.082 99.8596L124.207 98.6404ZM123.178 106.984C123.178 110.021 123.295 112.502 123.559 114.352L129.499 113.503C129.295 112.073 129.178 109.924 129.178 106.984H123.178ZM125.865 116.853C134.298 118.767 147.179 120.686 164.427 122.622L165.096 116.659C147.891 114.728 135.284 112.838 127.193 111.002L125.865 116.853ZM164.434 122.623L171.641 123.414L172.296 117.45L165.089 116.659L164.434 122.623ZM169.032 119.817L165.077 138.714L170.95 139.943L174.905 121.046L169.032 119.817ZM189.283 25.6855L188.716 22.7397C187.291 23.0141 186.267 24.2682 186.283 25.7186L189.283 25.6855ZM210.729 21.5547H213.729C213.729 20.6596 213.329 19.8113 212.639 19.2414C211.949 18.6715 211.04 18.4395 210.161 18.6088L210.729 21.5547ZM210.729 49.1523H207.729C207.729 50.0447 208.126 50.8907 208.812 51.4606C209.499 52.0306 210.404 52.2653 211.281 52.1011L210.729 49.1523ZM232.789 45.0215L235.779 44.7713C235.708 43.9256 235.282 43.1495 234.607 42.6352C233.932 42.1209 233.071 41.9165 232.237 42.0727L232.789 45.0215ZM234.459 64.9727L234.684 67.9642C235.482 67.9042 236.222 67.5281 236.742 66.9193C237.261 66.3106 237.515 65.5197 237.449 64.7224L234.459 64.9727ZM211.08 66.7305L210.855 63.7389C209.33 63.8536 208.136 65.0969 208.082 66.6252L211.08 66.7305ZM209.41 114.279L206.412 114.174C206.365 115.526 207.228 116.743 208.52 117.144L209.41 114.279ZM220.66 117.443L219.958 120.36L219.968 120.362L220.66 117.443ZM235.162 120.959L238.07 121.696C238.474 120.104 237.522 118.483 235.935 118.06L235.162 120.959ZM230.504 139.328L229.857 142.258C231.44 142.607 233.014 141.636 233.412 140.066L230.504 139.328ZM196.314 129.396L197.388 126.595C197.375 126.59 197.362 126.585 197.35 126.581L196.314 129.396ZM190.338 121.486H193.338C193.338 121.475 193.338 121.464 193.338 121.453L190.338 121.486ZM189.851 28.6314L211.296 24.5005L210.161 18.6088L188.716 22.7397L189.851 28.6314ZM207.729 21.5547V49.1523H213.729V21.5547H207.729ZM211.281 52.1011L233.341 47.9702L232.237 42.0727L210.176 46.2036L211.281 52.1011ZM229.8 45.2717L231.469 65.2229L237.449 64.7224L235.779 44.7713L229.8 45.2717ZM234.234 61.9811L210.855 63.7389L211.305 69.722L234.684 67.9642L234.234 61.9811ZM208.082 66.6252L206.412 114.174L212.408 114.385L214.078 66.8358L208.082 66.6252ZM208.52 117.144C212.896 118.504 216.711 119.578 219.958 120.36L221.362 114.527C218.281 113.785 214.597 112.75 210.301 111.414L208.52 117.144ZM219.968 120.362C227.897 122.242 232.682 123.402 234.389 123.858L235.935 118.06C234.127 117.578 229.244 116.395 221.352 114.524L219.968 120.362ZM232.254 120.222L227.596 138.591L233.412 140.066L238.07 121.696L232.254 120.222ZM231.151 136.399C218.251 133.551 207.003 130.28 197.388 126.595L195.241 132.198C205.196 136.013 216.741 139.363 229.857 142.258L231.151 136.399ZM197.35 126.581C195.745 125.991 194.789 125.257 194.226 124.512C193.681 123.791 193.338 122.842 193.338 121.486H187.338C187.338 123.94 187.991 126.213 189.438 128.129C190.868 130.02 192.899 131.337 195.279 132.212L197.35 126.581ZM193.338 121.453L192.283 25.6525L186.283 25.7186L187.338 121.519L193.338 121.453ZM255.553 51.0859L255.035 48.131C253.566 48.3883 252.51 49.685 252.554 51.1753L255.553 51.0859ZM276.119 47.4824L279.118 47.3872C279.09 46.5181 278.687 45.7037 278.012 45.155C277.337 44.6063 276.458 44.3774 275.601 44.5274L276.119 47.4824ZM276.646 64.0938H279.646C279.646 64.062 279.646 64.0303 279.645 63.9986L276.646 64.0938ZM276.646 74.1133H273.646C273.646 75.0037 274.042 75.848 274.726 76.418C275.41 76.988 276.312 77.2247 277.188 77.0641L276.646 74.1133ZM302.047 69.4551L302.588 72.4059C303.414 72.2543 304.139 71.7633 304.586 71.0521L302.047 69.4551ZM306.881 44.582L309.819 43.9742C309.591 42.8761 308.771 41.9964 307.691 41.6935L306.881 44.582ZM245.709 38.5176L242.743 38.0689C242.612 38.9331 242.865 39.8112 243.435 40.4738C244.004 41.1364 244.835 41.5176 245.709 41.5176V38.5176ZM248.873 17.5996L248.913 14.5999C247.415 14.5797 246.131 15.6688 245.907 17.1509L248.873 17.5996ZM315.846 24.1035L316.588 21.1968C316.55 21.1872 316.513 21.1784 316.475 21.1702L315.846 24.1035ZM324.986 33.1562L322.444 34.7488L322.446 34.7516L324.986 33.1562ZM329.293 50.0312L332.266 50.433L332.267 50.4226L329.293 50.0312ZM327.975 57.0625L330.897 57.7424L330.897 57.742L327.975 57.0625ZM320.943 74.4648L318.928 72.2427C318.919 72.2506 318.911 72.2585 318.902 72.2665L320.943 74.4648ZM307.057 80.2656L306.174 77.3983C305.17 77.7072 304.401 78.5189 304.146 79.538L307.057 80.2656ZM306.881 80.9688L303.97 80.2411C303.619 81.6478 304.323 83.1047 305.645 83.7022L306.881 80.9688ZM324.371 88.8789L327.293 88.1972C327.081 87.2884 326.458 86.53 325.607 86.1455L324.371 88.8789ZM323.492 115.598L326.382 116.403C326.388 116.383 326.393 116.363 326.398 116.343L323.492 115.598ZM317.076 128.605L318.731 131.108L318.74 131.102L317.076 128.605ZM275.68 135.461L275.939 138.45L275.95 138.449L275.68 135.461ZM258.102 136.604L255.103 136.693C255.152 138.346 256.53 139.648 258.184 139.602L258.102 136.604ZM277.877 118.059L274.877 118.111C274.892 118.943 275.251 119.73 275.869 120.287C276.486 120.844 277.307 121.119 278.135 121.047L277.877 118.059ZM301.607 114.279L302.516 117.139C303.457 116.84 304.191 116.097 304.478 115.152L301.607 114.279ZM304.068 93.9766L301.077 94.1982C301.08 94.239 301.083 94.2798 301.088 94.3204L304.068 93.9766ZM302.574 90.5488L304.448 88.2062C303.997 87.8451 303.451 87.6221 302.876 87.564L302.574 90.5488ZM277.35 88L277.651 85.0152C276.798 84.929 275.949 85.2119 275.318 85.7923C274.687 86.3728 274.335 87.1955 274.35 88.0526L277.35 88ZM256.07 54.0409L276.637 50.4374L275.601 44.5274L255.035 48.131L256.07 54.0409ZM273.121 47.5776L273.648 64.1889L279.645 63.9986L279.118 47.3872L273.121 47.5776ZM273.646 64.0938V74.1133H279.646V64.0938H273.646ZM277.188 77.0641L302.588 72.4059L301.506 66.5043L276.105 71.1625L277.188 77.0641ZM304.586 71.0521C308.486 64.8509 310.408 57.8137 310.408 50.0312H304.408C304.408 56.7801 302.756 62.6921 299.507 67.858L304.586 71.0521ZM310.408 50.0312C310.408 47.9163 310.216 45.8946 309.819 43.9742L303.943 45.1898C304.249 46.6679 304.408 48.279 304.408 50.0312H310.408ZM307.691 41.6935C292.886 37.5409 272.176 35.5176 245.709 35.5176V41.5176C271.976 41.5176 292.047 43.5372 306.071 47.4706L307.691 41.6935ZM248.675 38.9663L251.839 18.0483L245.907 17.1509L242.743 38.0689L248.675 38.9663ZM248.833 20.5993C274.776 20.9491 296.892 23.106 315.216 27.0368L316.475 21.1702C297.651 17.1322 275.118 14.9532 248.913 14.5999L248.833 20.5993ZM315.104 27.0103C315.765 27.1791 316.763 27.7156 318.085 29.0256C319.388 30.3156 320.845 32.1965 322.444 34.7488L327.529 31.5637C325.788 28.784 324.052 26.49 322.307 24.7625C320.583 23.0549 318.681 21.7311 316.588 21.1968L315.104 27.0103ZM322.446 34.7516C323.989 37.2097 325.097 39.2194 325.81 40.8034C326.56 42.4691 326.732 43.3662 326.732 43.7031H332.732C332.732 42.0479 332.114 40.191 331.282 38.3412C330.412 36.4095 329.148 34.1418 327.527 31.5609L322.446 34.7516ZM326.732 43.7031C326.732 45.5492 326.597 47.527 326.319 49.6399L332.267 50.4226C332.575 48.0823 332.732 45.8414 332.732 43.7031H326.732ZM326.32 49.6295C326.042 51.6891 325.621 53.9392 325.053 56.383L330.897 57.742C331.5 55.1468 331.958 52.7093 332.266 50.433L326.32 49.6295ZM325.053 56.3826C323.988 60.9596 322.901 64.5745 321.809 67.2765C320.688 70.0526 319.678 71.5625 318.928 72.2427L322.959 76.687C324.728 75.082 326.15 72.5489 327.372 69.5242C328.624 66.4255 329.794 62.4818 330.897 57.7424L325.053 56.3826ZM318.902 72.2665C318.505 72.6354 317.377 73.332 315.085 74.2894C312.896 75.2036 309.937 76.2405 306.174 77.3983L307.939 83.133C311.793 81.947 314.957 80.8452 317.398 79.8258C319.734 78.8497 321.741 77.8177 322.985 76.6632L318.902 72.2665ZM304.146 79.538L303.97 80.2411L309.791 81.6964L309.967 80.9932L304.146 79.538ZM305.645 83.7022L323.135 91.6124L325.607 86.1455L308.117 78.2353L305.645 83.7022ZM321.45 89.5606C322.22 92.8626 322.602 96.1203 322.602 99.3379H328.602C328.602 95.6414 328.163 91.9264 327.293 88.1972L321.45 89.5606ZM322.602 99.3379C322.602 102.623 322.403 105.448 322.024 107.831L327.949 108.774C328.39 106.002 328.602 102.85 328.602 99.3379H322.602ZM322.024 107.831C321.627 110.327 321.147 112.667 320.586 114.853L326.398 116.343C327.01 113.958 327.526 111.435 327.949 108.774L322.024 107.831ZM320.602 114.792C319.633 118.271 318.659 120.947 317.704 122.884C316.714 124.89 315.896 125.786 315.412 126.109L318.74 131.102C320.541 129.901 321.936 127.868 323.085 125.538C324.268 123.139 325.359 120.073 326.382 116.403L320.602 114.792ZM315.421 126.103C314.94 126.422 313.794 126.916 311.666 127.488C309.619 128.039 306.911 128.599 303.512 129.161C296.719 130.286 287.362 131.392 275.409 132.473L275.95 138.449C287.962 137.362 297.487 136.241 304.493 135.081C307.993 134.501 310.914 133.904 313.224 133.282C315.455 132.683 317.396 131.99 318.731 131.108L315.421 126.103ZM275.421 132.472C268.002 133.115 262.21 133.49 258.019 133.605L258.184 139.602C262.548 139.483 268.475 139.096 275.939 138.45L275.421 132.472ZM261.1 136.514L258.551 50.9966L252.554 51.1753L255.103 136.693L261.1 136.514ZM278.135 121.047C289.012 120.107 297.201 118.827 302.516 117.139L300.699 111.42C296.053 112.896 288.421 114.135 277.618 115.07L278.135 121.047ZM304.478 115.152C306.308 109.131 307.332 104.29 307.332 100.832H301.332C301.332 103.35 300.54 107.475 298.737 113.407L304.478 115.152ZM307.332 100.832C307.332 97.7589 307.245 95.3334 307.049 93.6327L301.088 94.3204C301.243 95.6666 301.332 97.8114 301.332 100.832H307.332ZM307.06 93.7549C306.907 91.69 306.209 89.6145 304.448 88.2062L300.7 92.8914C300.719 92.9069 300.781 92.9585 300.857 93.1319C300.94 93.322 301.036 93.6566 301.077 94.1982L307.06 93.7549ZM302.876 87.564L277.651 85.0152L277.048 90.9848L302.273 93.5336L302.876 87.564ZM274.35 88.0526L274.877 118.111L280.876 118.006L280.349 87.9474L274.35 88.0526ZM373.326 0.724609L376.214 -0.0897711C375.814 -1.50628 374.446 -2.42378 372.984 -2.25578L373.326 0.724609ZM374.029 15.666L377.017 15.9376L377.018 15.9297L374.029 15.666ZM373.414 21.1152L376.377 21.5855C376.38 21.5654 376.383 21.5453 376.386 21.5251L373.414 21.1152ZM371.393 28.6738L371.262 31.671C372.39 31.72 373.449 31.1323 374.004 30.15L371.393 28.6738ZM351.178 27.7949L348.232 27.2259C348.067 28.0826 348.282 28.9689 348.823 29.6538C349.364 30.3386 350.176 30.7542 351.047 30.7921L351.178 27.7949ZM352.672 3.09766L352.329 0.117263C350.815 0.291259 349.672 1.57329 349.672 3.09766H352.672ZM372.623 45.0215L375.62 44.876C375.579 44.0414 375.192 43.2614 374.552 42.724C373.912 42.1867 373.077 41.9406 372.248 42.045L372.623 45.0215ZM372.799 74.6406L375.797 74.7445L375.797 74.7363L372.799 74.6406ZM370.777 133L371.03 135.989C372.544 135.861 373.723 134.622 373.776 133.104L370.777 133ZM352.057 134.582L349.057 134.643C349.074 135.472 349.433 136.257 350.049 136.811C350.665 137.366 351.483 137.641 352.309 137.571L352.057 134.582ZM350.299 47.834L349.924 44.8575C348.401 45.0494 347.268 46.36 347.299 47.8948L350.299 47.834ZM370.439 1.53899C370.995 3.51064 371.293 5.80783 371.293 8.45898H377.293C377.293 5.36795 376.946 2.50889 376.214 -0.0897711L370.439 1.53899ZM371.293 8.45898C371.293 11.2157 371.207 13.525 371.041 15.4023L377.018 15.9297C377.204 13.8227 377.293 11.3272 377.293 8.45898H371.293ZM371.042 15.3944C370.87 17.2877 370.669 19.0576 370.442 20.7053L376.386 21.5251C376.627 19.7744 376.838 17.9115 377.017 15.9376L371.042 15.3944ZM370.451 20.6449C369.864 24.3439 369.248 26.3708 368.781 27.1977L374.004 30.15C375.06 28.2815 375.792 25.2694 376.377 21.5855L370.451 20.6449ZM371.523 25.6767L351.308 24.7978L351.047 30.7921L371.262 31.671L371.523 25.6767ZM354.123 28.3639C355.177 22.9074 355.672 14.431 355.672 3.09766H349.672C349.672 14.3815 349.17 22.3699 348.232 27.2259L354.123 28.3639ZM353.014 6.07805L373.669 3.705L372.984 -2.25578L352.329 0.117263L353.014 6.07805ZM369.627 45.1669C369.918 51.174 370.062 56.1903 370.062 60.2266H376.062C376.062 56.0597 375.914 50.9393 375.62 44.876L369.627 45.1669ZM370.062 60.2266C370.062 64.2876 369.975 69.059 369.8 74.5449L375.797 74.7363C375.974 69.2067 376.062 64.3687 376.062 60.2266H370.062ZM369.801 74.5368L367.779 132.896L373.776 133.104L375.797 74.7445L369.801 74.5368ZM370.525 130.011L351.804 131.593L352.309 137.571L371.03 135.989L370.525 130.011ZM355.056 134.521L353.298 47.7732L347.299 47.8948L349.057 134.643L355.056 134.521ZM350.674 50.8105L372.998 47.998L372.248 42.045L349.924 44.8575L350.674 50.8105ZM396.881 64.7969L393.881 64.8293C393.881 64.8389 393.881 64.8485 393.881 64.8581L396.881 64.7969ZM396.705 48.5371L396.397 45.553C394.855 45.7122 393.688 47.0197 393.705 48.5695L396.705 48.5371ZM415.426 46.6035L418.349 45.9303C418.01 44.4549 416.624 43.4638 415.118 43.6194L415.426 46.6035ZM418.502 59.9629L415.578 60.6361C415.829 61.7236 416.662 62.5822 417.742 62.865C418.821 63.1478 419.969 62.808 420.72 61.9829L418.502 59.9629ZM431.949 45.1973V42.1973C431.105 42.1973 430.3 42.553 429.731 43.1773L431.949 45.1973ZM442.408 45.1973L445.342 44.5704C445.046 43.1864 443.823 42.1973 442.408 42.1973V45.1973ZM446.803 65.7637L447.438 68.6957C449.054 68.3457 450.082 66.7539 449.737 65.1368L446.803 65.7637ZM433.004 68.752L433.63 71.6859L433.639 71.684L433.004 68.752ZM419.381 71.8281L418.688 68.9093C417.358 69.2252 416.409 70.4001 416.381 71.7667L419.381 71.8281ZM418.15 131.945L418.415 134.934C419.94 134.799 421.118 133.537 421.15 132.007L418.15 131.945ZM398.287 133.703L395.288 133.764C395.305 134.595 395.665 135.382 396.284 135.937C396.903 136.491 397.724 136.765 398.552 136.691L398.287 133.703ZM399.881 64.7644L399.705 48.5047L393.705 48.5695L393.881 64.8293L399.881 64.7644ZM397.013 51.5212L415.734 49.5876L415.118 43.6194L396.397 45.553L397.013 51.5212ZM412.502 47.2767L415.578 60.6361L421.425 59.2897L418.349 45.9303L412.502 47.2767ZM420.72 61.9829L434.167 47.2173L429.731 43.1773L416.284 57.9429L420.72 61.9829ZM431.949 48.1973H442.408V42.1973H431.949V48.1973ZM439.474 45.8241L443.869 66.3905L449.737 65.1368L445.342 44.5704L439.474 45.8241ZM446.803 65.7637C446.168 62.8316 446.168 62.8316 446.168 62.8316C446.168 62.8317 446.168 62.8317 446.168 62.8317C446.167 62.8317 446.167 62.8317 446.167 62.8317C446.167 62.8318 446.167 62.8318 446.167 62.8318C446.167 62.8319 446.167 62.8319 446.166 62.8319C446.166 62.832 446.166 62.832 446.166 62.832C446.166 62.8321 446.165 62.8321 446.165 62.8322C446.165 62.8322 446.165 62.8323 446.164 62.8324C446.164 62.8324 446.164 62.8325 446.164 62.8326C446.163 62.8326 446.163 62.8327 446.163 62.8328C446.162 62.8329 446.162 62.8329 446.161 62.833C446.161 62.8331 446.161 62.8332 446.16 62.8333C446.16 62.8334 446.159 62.8335 446.159 62.8336C446.158 62.8337 446.158 62.8338 446.157 62.8339C446.157 62.834 446.156 62.8341 446.156 62.8342C446.155 62.8343 446.155 62.8344 446.154 62.8346C446.154 62.8347 446.153 62.8348 446.153 62.8349C446.152 62.8351 446.151 62.8352 446.151 62.8353C446.15 62.8355 446.149 62.8356 446.149 62.8358C446.148 62.8359 446.147 62.836 446.147 62.8362C446.146 62.8363 446.145 62.8365 446.145 62.8367C446.144 62.8368 446.143 62.837 446.142 62.8372C446.142 62.8373 446.141 62.8375 446.14 62.8377C446.139 62.8378 446.138 62.838 446.137 62.8382C446.137 62.8384 446.136 62.8386 446.135 62.8388C446.134 62.839 446.133 62.8391 446.132 62.8393C446.131 62.8395 446.13 62.8397 446.129 62.8399C446.128 62.8402 446.127 62.8404 446.127 62.8406C446.126 62.8408 446.125 62.841 446.124 62.8412C446.122 62.8414 446.121 62.8417 446.12 62.8419C446.119 62.8421 446.118 62.8424 446.117 62.8426C446.116 62.8428 446.115 62.8431 446.114 62.8433C446.113 62.8436 446.112 62.8438 446.11 62.8441C446.109 62.8443 446.108 62.8446 446.107 62.8448C446.106 62.8451 446.105 62.8453 446.103 62.8456C446.102 62.8459 446.101 62.8461 446.1 62.8464C446.098 62.8467 446.097 62.847 446.096 62.8472C446.094 62.8475 446.093 62.8478 446.092 62.8481C446.09 62.8484 446.089 62.8487 446.088 62.849C446.086 62.8493 446.085 62.8496 446.084 62.8499C446.082 62.8502 446.081 62.8505 446.079 62.8508C446.078 62.8511 446.076 62.8514 446.075 62.8517C446.073 62.8521 446.072 62.8524 446.07 62.8527C446.069 62.853 446.067 62.8534 446.066 62.8537C446.064 62.854 446.063 62.8544 446.061 62.8547C446.06 62.8551 446.058 62.8554 446.056 62.8558C446.055 62.8561 446.053 62.8565 446.051 62.8568C446.05 62.8572 446.048 62.8575 446.046 62.8579C446.045 62.8583 446.043 62.8586 446.041 62.859C446.04 62.8594 446.038 62.8598 446.036 62.8601C446.034 62.8605 446.033 62.8609 446.031 62.8613C446.029 62.8617 446.027 62.8621 446.025 62.8625C446.024 62.8629 446.022 62.8633 446.02 62.8637C446.018 62.8641 446.016 62.8645 446.014 62.8649C446.012 62.8653 446.01 62.8657 446.009 62.8661C446.007 62.8665 446.005 62.867 446.003 62.8674C446.001 62.8678 445.999 62.8682 445.997 62.8687C445.995 62.8691 445.993 62.8695 445.991 62.87C445.989 62.8704 445.987 62.8709 445.985 62.8713C445.982 62.8718 445.98 62.8722 445.978 62.8727C445.976 62.8731 445.974 62.8736 445.972 62.8741C445.97 62.8745 445.968 62.875 445.965 62.8755C445.963 62.8759 445.961 62.8764 445.959 62.8769C445.957 62.8774 445.954 62.8778 445.952 62.8783C445.95 62.8788 445.948 62.8793 445.945 62.8798C445.943 62.8803 445.941 62.8808 445.938 62.8813C445.936 62.8818 445.934 62.8823 445.931 62.8828C445.929 62.8833 445.927 62.8838 445.924 62.8843C445.922 62.8849 445.92 62.8854 445.917 62.8859C445.915 62.8864 445.912 62.887 445.91 62.8875C445.907 62.888 445.905 62.8886 445.902 62.8891C445.9 62.8896 445.897 62.8902 445.895 62.8907C445.892 62.8913 445.89 62.8918 445.887 62.8924C445.885 62.8929 445.882 62.8935 445.88 62.8941C445.877 62.8946 445.874 62.8952 445.872 62.8958C445.869 62.8963 445.866 62.8969 445.864 62.8975C445.861 62.8981 445.858 62.8986 445.856 62.8992C445.853 62.8998 445.85 62.9004 445.848 62.901C445.845 62.9016 445.842 62.9022 445.839 62.9028C445.836 62.9034 445.834 62.904 445.831 62.9046C445.828 62.9052 445.825 62.9058 445.822 62.9064C445.82 62.907 445.817 62.9077 445.814 62.9083C445.811 62.9089 445.808 62.9095 445.805 62.9102C445.802 62.9108 445.799 62.9114 445.796 62.9121C445.793 62.9127 445.79 62.9134 445.787 62.914C445.784 62.9146 445.781 62.9153 445.778 62.9159C445.775 62.9166 445.772 62.9173 445.769 62.9179C445.766 62.9186 445.763 62.9192 445.76 62.9199C445.757 62.9206 445.754 62.9213 445.751 62.9219C445.748 62.9226 445.745 62.9233 445.741 62.924C445.738 62.9247 445.735 62.9253 445.732 62.926C445.729 62.9267 445.725 62.9274 445.722 62.9281C445.719 62.9288 445.716 62.9295 445.713 62.9302C445.709 62.9309 445.706 62.9316 445.703 62.9324C445.699 62.9331 445.696 62.9338 445.693 62.9345C445.689 62.9352 445.686 62.936 445.683 62.9367C445.679 62.9374 445.676 62.9382 445.672 62.9389C445.669 62.9396 445.666 62.9404 445.662 62.9411C445.659 62.9419 445.655 62.9426 445.652 62.9434C445.648 62.9441 445.645 62.9449 445.641 62.9456C445.638 62.9464 445.634 62.9472 445.631 62.9479C445.627 62.9487 445.624 62.9495 445.62 62.9502C445.617 62.951 445.613 62.9518 445.609 62.9526C445.606 62.9534 445.602 62.9541 445.598 62.9549C445.595 62.9557 445.591 62.9565 445.587 62.9573C445.584 62.9581 445.58 62.9589 445.576 62.9597C445.573 62.9605 445.569 62.9613 445.565 62.9621C445.561 62.963 445.558 62.9638 445.554 62.9646C445.55 62.9654 445.546 62.9662 445.542 62.9671C445.539 62.9679 445.535 62.9687 445.531 62.9696C445.527 62.9704 445.523 62.9712 445.519 62.9721C445.515 62.9729 445.511 62.9738 445.507 62.9746C445.504 62.9755 445.5 62.9763 445.496 62.9772C445.492 62.9781 445.488 62.9789 445.484 62.9798C445.48 62.9807 445.476 62.9815 445.472 62.9824C445.468 62.9833 445.464 62.9841 445.459 62.985C445.455 62.9859 445.451 62.9868 445.447 62.9877C445.443 62.9886 445.439 62.9895 445.435 62.9904C445.431 62.9913 445.427 62.9922 445.422 62.9931C445.418 62.994 445.414 62.9949 445.41 62.9958C445.406 62.9967 445.401 62.9976 445.397 62.9985C445.393 62.9995 445.389 63.0004 445.384 63.0013C445.38 63.0022 445.376 63.0032 445.371 63.0041C445.367 63.005 445.363 63.006 445.358 63.0069C445.354 63.0079 445.35 63.0088 445.345 63.0098C445.341 63.0107 445.337 63.0117 445.332 63.0126C445.328 63.0136 445.323 63.0145 445.319 63.0155C445.314 63.0165 445.31 63.0174 445.305 63.0184C445.301 63.0194 445.296 63.0204 445.292 63.0213C445.287 63.0223 445.283 63.0233 445.278 63.0243C445.274 63.0253 445.269 63.0263 445.264 63.0273C445.26 63.0283 445.255 63.0293 445.251 63.0303C445.246 63.0313 445.241 63.0323 445.237 63.0333C445.232 63.0343 445.227 63.0353 445.223 63.0363C445.218 63.0373 445.213 63.0384 445.208 63.0394C445.204 63.0404 445.199 63.0414 445.194 63.0425C445.189 63.0435 445.185 63.0446 445.18 63.0456C445.175 63.0466 445.17 63.0477 445.165 63.0487C445.16 63.0498 445.156 63.0508 445.151 63.0519C445.146 63.0529 445.141 63.054 445.136 63.0551C445.131 63.0561 445.126 63.0572 445.121 63.0583C445.116 63.0593 445.111 63.0604 445.106 63.0615C445.101 63.0626 445.096 63.0637 445.091 63.0647C445.086 63.0658 445.081 63.0669 445.076 63.068C445.071 63.0691 445.066 63.0702 445.061 63.0713C445.056 63.0724 445.051 63.0735 445.046 63.0746C445.041 63.0757 445.035 63.0769 445.03 63.078C445.025 63.0791 445.02 63.0802 445.015 63.0813C445.01 63.0825 445.004 63.0836 444.999 63.0847C444.994 63.0858 444.989 63.087 444.983 63.0881C444.978 63.0893 444.973 63.0904 444.968 63.0916C444.962 63.0927 444.957 63.0939 444.952 63.095C444.946 63.0962 444.941 63.0973 444.936 63.0985C444.93 63.0996 444.925 63.1008 444.919 63.102C444.914 63.1032 444.909 63.1043 444.903 63.1055C444.898 63.1067 444.892 63.1079 444.887 63.1091C444.881 63.1102 444.876 63.1114 444.87 63.1126C444.865 63.1138 444.859 63.115 444.854 63.1162C444.848 63.1174 444.843 63.1186 444.837 63.1198C444.831 63.121 444.826 63.1222 444.82 63.1235C444.815 63.1247 444.809 63.1259 444.803 63.1271C444.798 63.1283 444.792 63.1296 444.786 63.1308C444.781 63.132 444.775 63.1333 444.769 63.1345C444.764 63.1357 444.758 63.137 444.752 63.1382C444.746 63.1395 444.74 63.1407 444.735 63.142C444.729 63.1432 444.723 63.1445 444.717 63.1458C444.711 63.147 444.706 63.1483 444.7 63.1496C444.694 63.1508 444.688 63.1521 444.682 63.1534C444.676 63.1547 444.67 63.1559 444.664 63.1572C444.658 63.1585 444.652 63.1598 444.647 63.1611C444.641 63.1624 444.635 63.1637 444.629 63.165C444.623 63.1663 444.617 63.1676 444.611 63.1689C444.604 63.1702 444.598 63.1715 444.592 63.1728C444.586 63.1741 444.58 63.1754 444.574 63.1768C444.568 63.1781 444.562 63.1794 444.556 63.1807C444.55 63.1821 444.543 63.1834 444.537 63.1847C444.531 63.1861 444.525 63.1874 444.519 63.1888C444.512 63.1901 444.506 63.1915 444.5 63.1928C444.494 63.1942 444.487 63.1955 444.481 63.1969C444.475 63.1982 444.469 63.1996 444.462 63.201C444.456 63.2023 444.45 63.2037 444.443 63.2051C444.437 63.2065 444.431 63.2078 444.424 63.2092C444.418 63.2106 444.411 63.212 444.405 63.2134C444.399 63.2148 444.392 63.2162 444.386 63.2176C444.379 63.219 444.373 63.2204 444.366 63.2218C444.36 63.2232 444.353 63.2246 444.347 63.226C444.34 63.2274 444.334 63.2288 444.327 63.2303C444.32 63.2317 444.314 63.2331 444.307 63.2345C444.301 63.236 444.294 63.2374 444.287 63.2388C444.281 63.2403 444.274 63.2417 444.268 63.2432C444.261 63.2446 444.254 63.246 444.247 63.2475C444.241 63.249 444.234 63.2504 444.227 63.2519C444.221 63.2533 444.214 63.2548 444.207 63.2563C444.2 63.2577 444.193 63.2592 444.187 63.2607C444.18 63.2621 444.173 63.2636 444.166 63.2651C444.159 63.2666 444.152 63.2681 444.146 63.2696C444.139 63.271 444.132 63.2725 444.125 63.274C444.118 63.2755 444.111 63.277 444.104 63.2785C444.097 63.28 444.09 63.2816 444.083 63.2831C444.076 63.2846 444.069 63.2861 444.062 63.2876C444.055 63.2891 444.048 63.2907 444.041 63.2922C444.034 63.2937 444.027 63.2952 444.02 63.2968C444.013 63.2983 444.006 63.2999 443.999 63.3014C443.991 63.3029 443.984 63.3045 443.977 63.306C443.97 63.3076 443.963 63.3091 443.956 63.3107C443.948 63.3123 443.941 63.3138 443.934 63.3154C443.927 63.3169 443.92 63.3185 443.912 63.3201C443.905 63.3217 443.898 63.3232 443.89 63.3248C443.883 63.3264 443.876 63.328 443.868 63.3296C443.861 63.3312 443.854 63.3328 443.846 63.3344C443.839 63.3359 443.832 63.3375 443.824 63.3392C443.817 63.3408 443.809 63.3424 443.802 63.344C443.795 63.3456 443.787 63.3472 443.78 63.3488C443.772 63.3504 443.765 63.3521 443.757 63.3537C443.75 63.3553 443.742 63.3569 443.735 63.3586C443.727 63.3602 443.719 63.3618 443.712 63.3635C443.704 63.3651 443.697 63.3668 443.689 63.3684C443.681 63.3701 443.674 63.3717 443.666 63.3734C443.659 63.375 443.651 63.3767 443.643 63.3784C443.635 63.38 443.628 63.3817 443.62 63.3834C443.612 63.385 443.605 63.3867 443.597 63.3884C443.589 63.3901 443.581 63.3918 443.574 63.3934C443.566 63.3951 443.558 63.3968 443.55 63.3985C443.542 63.4002 443.534 63.4019 443.527 63.4036C443.519 63.4053 443.511 63.407 443.503 63.4087C443.495 63.4104 443.487 63.4122 443.479 63.4139C443.471 63.4156 443.463 63.4173 443.455 63.419C443.447 63.4208 443.439 63.4225 443.431 63.4242C443.423 63.426 443.415 63.4277 443.407 63.4294C443.399 63.4312 443.391 63.4329 443.383 63.4347C443.375 63.4364 443.367 63.4382 443.359 63.4399C443.351 63.4417 443.343 63.4434 443.335 63.4452C443.326 63.447 443.318 63.4487 443.31 63.4505C443.302 63.4523 443.294 63.454 443.286 63.4558C443.277 63.4576 443.269 63.4594 443.261 63.4612C443.253 63.463 443.244 63.4647 443.236 63.4665C443.228 63.4683 443.219 63.4701 443.211 63.4719C443.203 63.4737 443.194 63.4755 443.186 63.4773C443.178 63.4792 443.169 63.481 443.161 63.4828C443.153 63.4846 443.144 63.4864 443.136 63.4882C443.127 63.4901 443.119 63.4919 443.11 63.4937C443.102 63.4956 443.094 63.4974 443.085 63.4992C443.077 63.5011 443.068 63.5029 443.06 63.5048C443.051 63.5066 443.042 63.5085 443.034 63.5103C443.025 63.5122 443.017 63.514 443.008 63.5159C443 63.5177 442.991 63.5196 442.982 63.5215C442.974 63.5234 442.965 63.5252 442.956 63.5271C442.948 63.529 442.939 63.5309 442.93 63.5327C442.922 63.5346 442.913 63.5365 442.904 63.5384C442.895 63.5403 442.887 63.5422 442.878 63.5441C442.869 63.546 442.86 63.5479 442.852 63.5498C442.843 63.5517 442.834 63.5536 442.825 63.5555C442.816 63.5575 442.807 63.5594 442.798 63.5613C442.79 63.5632 442.781 63.5652 442.772 63.5671C442.763 63.569 442.754 63.5709 442.745 63.5729C442.736 63.5748 442.727 63.5768 442.718 63.5787C442.709 63.5807 442.7 63.5826 442.691 63.5846C442.682 63.5865 442.673 63.5885 442.664 63.5904C442.655 63.5924 442.646 63.5944 442.637 63.5963C442.628 63.5983 442.619 63.6003 442.609 63.6022C442.6 63.6042 442.591 63.6062 442.582 63.6082C442.573 63.6102 442.564 63.6121 442.554 63.6141C442.545 63.6161 442.536 63.6181 442.527 63.6201C442.518 63.6221 442.508 63.6241 442.499 63.6261C442.49 63.6281 442.481 63.6301 442.471 63.6322C442.462 63.6342 442.453 63.6362 442.443 63.6382C442.434 63.6402 442.425 63.6423 442.415 63.6443C442.406 63.6463 442.396 63.6484 442.387 63.6504C442.378 63.6524 442.368 63.6545 442.359 63.6565C442.349 63.6586 442.34 63.6606 442.33 63.6627C442.321 63.6647 442.311 63.6668 442.302 63.6688C442.292 63.6709 442.283 63.6729 442.273 63.675C442.264 63.6771 442.254 63.6791 442.245 63.6812C442.235 63.6833 442.226 63.6854 442.216 63.6875C442.206 63.6895 442.197 63.6916 442.187 63.6937C442.177 63.6958 442.168 63.6979 442.158 63.7C442.148 63.7021 442.139 63.7042 442.129 63.7063C442.119 63.7084 442.109 63.7105 442.1 63.7126C442.09 63.7147 442.08 63.7169 442.07 63.719C442.061 63.7211 442.051 63.7232 442.041 63.7254C442.031 63.7275 442.021 63.7296 442.011 63.7317C442.002 63.7339 441.992 63.736 441.982 63.7382C441.972 63.7403 441.962 63.7425 441.952 63.7446C441.942 63.7468 441.932 63.7489 441.922 63.7511C441.912 63.7532 441.902 63.7554 441.892 63.7576C441.882 63.7597 441.872 63.7619 441.862 63.7641C441.852 63.7662 441.842 63.7684 441.832 63.7706C441.822 63.7728 441.812 63.775 441.802 63.7771C441.792 63.7793 441.782 63.7815 441.771 63.7837C441.761 63.7859 441.751 63.7881 441.741 63.7903C441.731 63.7925 441.721 63.7947 441.71 63.7969C441.7 63.7992 441.69 63.8014 441.68 63.8036C441.669 63.8058 441.659 63.808 441.649 63.8103C441.639 63.8125 441.628 63.8147 441.618 63.817C441.608 63.8192 441.597 63.8214 441.587 63.8237C441.577 63.8259 441.566 63.8282 441.556 63.8304C441.545 63.8327 441.535 63.8349 441.525 63.8372C441.514 63.8394 441.504 63.8417 441.493 63.8439C441.483 63.8462 441.472 63.8485 441.462 63.8508C441.451 63.853 441.441 63.8553 441.43 63.8576C441.42 63.8599 441.409 63.8621 441.399 63.8644C441.388 63.8667 441.378 63.869 441.367 63.8713C441.356 63.8736 441.346 63.8759 441.335 63.8782C441.324 63.8805 441.314 63.8828 441.303 63.8851C441.292 63.8874 441.282 63.8897 441.271 63.8921C441.26 63.8944 441.25 63.8967 441.239 63.899C441.228 63.9014 441.217 63.9037 441.207 63.906C441.196 63.9084 441.185 63.9107 441.174 63.913C441.163 63.9154 441.153 63.9177 441.142 63.9201C441.131 63.9224 441.12 63.9248 441.109 63.9271C441.098 63.9295 441.087 63.9318 441.077 63.9342C441.066 63.9366 441.055 63.9389 441.044 63.9413C441.033 63.9437 441.022 63.946 441.011 63.9484C441 63.9508 440.989 63.9532 440.978 63.9556C440.967 63.958 440.956 63.9603 440.945 63.9627C440.934 63.9651 440.923 63.9675 440.912 63.9699C440.9 63.9723 440.889 63.9747 440.878 63.9772C440.867 63.9796 440.856 63.982 440.845 63.9844C440.834 63.9868 440.822 63.9892 440.811 63.9917C440.8 63.9941 440.789 63.9965 440.778 63.9989C440.766 64.0014 440.755 64.0038 440.744 64.0062C440.733 64.0087 440.721 64.0111 440.71 64.0136C440.699 64.016 440.687 64.0185 440.676 64.0209C440.665 64.0234 440.653 64.0258 440.642 64.0283C440.631 64.0308 440.619 64.0332 440.608 64.0357C440.596 64.0382 440.585 64.0406 440.574 64.0431C440.562 64.0456 440.551 64.0481 440.539 64.0506C440.528 64.053 440.516 64.0555 440.505 64.058C440.493 64.0605 440.482 64.063 440.47 64.0655C440.459 64.068 440.447 64.0705 440.435 64.073C440.424 64.0755 440.412 64.0781 440.401 64.0806C440.389 64.0831 440.377 64.0856 440.366 64.0881C440.354 64.0906 440.342 64.0932 440.331 64.0957C440.319 64.0982 440.307 64.1008 440.296 64.1033C440.284 64.1058 440.272 64.1084 440.26 64.1109C440.249 64.1135 440.237 64.116 440.225 64.1186C440.213 64.1211 440.202 64.1237 440.19 64.1263C440.178 64.1288 440.166 64.1314 440.154 64.1339C440.142 64.1365 440.13 64.1391 440.119 64.1417C440.107 64.1442 440.095 64.1468 440.083 64.1494C440.071 64.152 440.059 64.1546 440.047 64.1572C440.035 64.1598 440.023 64.1624 440.011 64.165C439.999 64.1676 439.987 64.1702 439.975 64.1728C439.963 64.1754 439.951 64.178 439.939 64.1806C439.927 64.1832 439.915 64.1858 439.902 64.1885C439.89 64.1911 439.878 64.1937 439.866 64.1963C439.854 64.199 439.842 64.2016 439.83 64.2042C439.817 64.2069 439.805 64.2095 439.793 64.2121C439.781 64.2148 439.769 64.2174 439.756 64.2201C439.744 64.2227 439.732 64.2254 439.72 64.2281C439.707 64.2307 439.695 64.2334 439.683 64.2361C439.67 64.2387 439.658 64.2414 439.646 64.2441C439.633 64.2467 439.621 64.2494 439.609 64.2521C439.596 64.2548 439.584 64.2575 439.571 64.2602C439.559 64.2629 439.546 64.2655 439.534 64.2682C439.522 64.2709 439.509 64.2736 439.497 64.2764C439.484 64.2791 439.472 64.2818 439.459 64.2845C439.447 64.2872 439.434 64.2899 439.421 64.2926C439.409 64.2953 439.396 64.2981 439.384 64.3008C439.371 64.3035 439.358 64.3063 439.346 64.309C439.333 64.3117 439.321 64.3145 439.308 64.3172C439.295 64.32 439.283 64.3227 439.27 64.3255C439.257 64.3282 439.244 64.331 439.232 64.3337C439.219 64.3365 439.206 64.3392 439.193 64.342C439.181 64.3448 439.168 64.3475 439.155 64.3503C439.142 64.3531 439.129 64.3559 439.117 64.3587C439.104 64.3614 439.091 64.3642 439.078 64.367C439.065 64.3698 439.052 64.3726 439.039 64.3754C439.026 64.3782 439.013 64.381 439 64.3838C438.988 64.3866 438.975 64.3894 438.962 64.3922C438.949 64.395 438.936 64.3978 438.923 64.4007C438.91 64.4035 438.897 64.4063 438.883 64.4091C438.87 64.412 438.857 64.4148 438.844 64.4176C438.831 64.4205 438.818 64.4233 438.805 64.4261C438.792 64.429 438.779 64.4318 438.766 64.4347C438.752 64.4375 438.739 64.4404 438.726 64.4432C438.713 64.4461 438.7 64.449 438.686 64.4518C438.673 64.4547 438.66 64.4576 438.647 64.4604C438.633 64.4633 438.62 64.4662 438.607 64.4691C438.593 64.4719 438.58 64.4748 438.567 64.4777C438.553 64.4806 438.54 64.4835 438.527 64.4864C438.513 64.4893 438.5 64.4922 438.487 64.4951C438.473 64.498 438.46 64.5009 438.446 64.5038C438.433 64.5067 438.419 64.5096 438.406 64.5125C438.392 64.5155 438.379 64.5184 438.365 64.5213C438.352 64.5242 438.338 64.5272 438.325 64.5301C438.311 64.533 438.298 64.536 438.284 64.5389C438.271 64.5419 438.257 64.5448 438.243 64.5477C438.23 64.5507 438.216 64.5536 438.202 64.5566C438.189 64.5596 438.175 64.5625 438.161 64.5655C438.148 64.5684 438.134 64.5714 438.12 64.5744C438.107 64.5774 438.093 64.5803 438.079 64.5833C438.065 64.5863 438.052 64.5893 438.038 64.5923C438.024 64.5952 438.01 64.5982 437.996 64.6012C437.983 64.6042 437.969 64.6072 437.955 64.6102C437.941 64.6132 437.927 64.6162 437.913 64.6192C437.899 64.6223 437.885 64.6253 437.871 64.6283C437.858 64.6313 437.844 64.6343 437.83 64.6373C437.816 64.6404 437.802 64.6434 437.788 64.6464C437.774 64.6495 437.76 64.6525 437.746 64.6555C437.732 64.6586 437.718 64.6616 437.703 64.6647C437.689 64.6677 437.675 64.6708 437.661 64.6738C437.647 64.6769 437.633 64.6799 437.619 64.683C437.605 64.6861 437.591 64.6891 437.576 64.6922C437.562 64.6953 437.548 64.6983 437.534 64.7014C437.52 64.7045 437.505 64.7076 437.491 64.7107C437.477 64.7138 437.463 64.7168 437.448 64.7199C437.434 64.723 437.42 64.7261 437.405 64.7292C437.391 64.7323 437.377 64.7354 437.362 64.7385C437.348 64.7416 437.334 64.7448 437.319 64.7479C437.305 64.751 437.29 64.7541 437.276 64.7572C437.262 64.7604 437.247 64.7635 437.233 64.7666C437.218 64.7697 437.204 64.7729 437.189 64.776C437.175 64.7792 437.16 64.7823 437.146 64.7854C437.131 64.7886 437.117 64.7917 437.102 64.7949C437.088 64.7981 437.073 64.8012 437.058 64.8044C437.044 64.8075 437.029 64.8107 437.015 64.8139C437 64.817 436.985 64.8202 436.971 64.8234C436.956 64.8266 436.941 64.8297 436.927 64.8329C436.912 64.8361 436.897 64.8393 436.882 64.8425C436.868 64.8457 436.853 64.8489 436.838 64.8521C436.823 64.8553 436.809 64.8585 436.794 64.8617C436.779 64.8649 436.764 64.8681 436.749 64.8713C436.734 64.8745 436.72 64.8778 436.705 64.881C436.69 64.8842 436.675 64.8874 436.66 64.8907C436.645 64.8939 436.63 64.8971 436.615 64.9004C436.6 64.9036 436.585 64.9068 436.57 64.9101C436.555 64.9133 436.54 64.9166 436.525 64.9198C436.51 64.9231 436.495 64.9263 436.48 64.9296C436.465 64.9329 436.45 64.9361 436.435 64.9394C436.42 64.9427 436.405 64.9459 436.39 64.9492C436.374 64.9525 436.359 64.9558 436.344 64.959C436.329 64.9623 436.314 64.9656 436.299 64.9689C436.283 64.9722 436.268 64.9755 436.253 64.9788C436.238 64.9821 436.223 64.9854 436.207 64.9887C436.192 64.992 436.177 64.9953 436.161 64.9986C436.146 65.0019 436.131 65.0052 436.115 65.0086C436.1 65.0119 436.085 65.0152 436.069 65.0185C436.054 65.0219 436.039 65.0252 436.023 65.0285C436.008 65.0319 435.992 65.0352 435.977 65.0386C435.962 65.0419 435.946 65.0453 435.931 65.0486C435.915 65.052 435.9 65.0553 435.884 65.0587C435.869 65.062 435.853 65.0654 435.838 65.0688C435.822 65.0721 435.806 65.0755 435.791 65.0789C435.775 65.0822 435.76 65.0856 435.744 65.089C435.728 65.0924 435.713 65.0958 435.697 65.0992C435.682 65.1025 435.666 65.1059 435.65 65.1093C435.634 65.1127 435.619 65.1161 435.603 65.1195C435.587 65.1229 435.572 65.1264 435.556 65.1298C435.54 65.1332 435.524 65.1366 435.509 65.14C435.493 65.1434 435.477 65.1469 435.461 65.1503C435.445 65.1537 435.429 65.1571 435.414 65.1606C435.398 65.164 435.382 65.1675 435.366 65.1709C435.35 65.1743 435.334 65.1778 435.318 65.1812C435.302 65.1847 435.286 65.1881 435.27 65.1916C435.254 65.1951 435.238 65.1985 435.222 65.202C435.206 65.2054 435.19 65.2089 435.174 65.2124C435.158 65.2159 435.142 65.2193 435.126 65.2228C435.11 65.2263 435.094 65.2298 435.078 65.2333C435.062 65.2368 435.046 65.2403 435.029 65.2437C435.013 65.2472 434.997 65.2507 434.981 65.2542C434.965 65.2578 434.949 65.2613 434.932 65.2648C434.916 65.2683 434.9 65.2718 434.884 65.2753C434.867 65.2788 434.851 65.2824 434.835 65.2859C434.819 65.2894 434.802 65.2929 434.786 65.2965C434.77 65.3 434.753 65.3035 434.737 65.3071C434.721 65.3106 434.704 65.3142 434.688 65.3177C434.672 65.3213 434.655 65.3248 434.639 65.3284C434.622 65.3319 434.606 65.3355 434.589 65.3391C434.573 65.3426 434.556 65.3462 434.54 65.3498C434.523 65.3533 434.507 65.3569 434.49 65.3605C434.474 65.3641 434.457 65.3677 434.441 65.3712C434.424 65.3748 434.408 65.3784 434.391 65.382C434.374 65.3856 434.358 65.3892 434.341 65.3928C434.325 65.3964 434.308 65.4 434.291 65.4036C434.275 65.4072 434.258 65.4108 434.241 65.4145C434.224 65.4181 434.208 65.4217 434.191 65.4253C434.174 65.429 434.158 65.4326 434.141 65.4362C434.124 65.4398 434.107 65.4435 434.09 65.4471C434.074 65.4508 434.057 65.4544 434.04 65.4581C434.023 65.4617 434.006 65.4654 433.989 65.469C433.972 65.4727 433.956 65.4763 433.939 65.48C433.922 65.4837 433.905 65.4873 433.888 65.491C433.871 65.4947 433.854 65.4983 433.837 65.502C433.82 65.5057 433.803 65.5094 433.786 65.5131C433.769 65.5167 433.752 65.5204 433.735 65.5241C433.718 65.5278 433.701 65.5315 433.684 65.5352C433.666 65.5389 433.649 65.5426 433.632 65.5463C433.615 65.55 433.598 65.5538 433.581 65.5575C433.564 65.5612 433.546 65.5649 433.529 65.5686C433.512 65.5724 433.495 65.5761 433.478 65.5798C433.46 65.5835 433.443 65.5873 433.426 65.591C433.409 65.5948 433.391 65.5985 433.374 65.6022C433.357 65.606 433.339 65.6097 433.322 65.6135C433.305 65.6173 433.287 65.621 433.27 65.6248C433.253 65.6285 433.235 65.6323 433.218 65.6361C433.2 65.6398 433.183 65.6436 433.166 65.6474C433.148 65.6512 433.131 65.6549 433.113 65.6587C433.096 65.6625 433.078 65.6663 433.061 65.6701C433.043 65.6739 433.026 65.6777 433.008 65.6815C432.991 65.6853 432.973 65.6891 432.955 65.6929C432.938 65.6967 432.92 65.7005 432.903 65.7043C432.885 65.7081 432.867 65.712 432.85 65.7158C432.832 65.7196 432.814 65.7234 432.797 65.7273C432.779 65.7311 432.761 65.7349 432.744 65.7388C432.726 65.7426 432.708 65.7464 432.69 65.7503C432.673 65.7541 432.655 65.758 432.637 65.7618C432.619 65.7657 432.602 65.7695 432.584 65.7734C432.566 65.7773 432.548 65.7811 432.53 65.785C432.512 65.7889 432.494 65.7927 432.477 65.7966C432.459 65.8005 432.441 65.8044 432.423 65.8083C432.405 65.8121 432.387 65.816 432.369 65.8199L433.639 71.684C433.657 71.6801 433.675 71.6762 433.693 71.6723C433.711 71.6684 433.729 71.6646 433.746 71.6607C433.764 71.6568 433.782 71.6529 433.8 71.6491C433.818 71.6452 433.836 71.6413 433.854 71.6375C433.871 71.6336 433.889 71.6298 433.907 71.6259C433.925 71.6221 433.943 71.6182 433.96 71.6144C433.978 71.6105 433.996 71.6067 434.014 71.6028C434.031 71.599 434.049 71.5952 434.067 71.5913C434.084 71.5875 434.102 71.5837 434.12 71.5799C434.137 71.576 434.155 71.5722 434.173 71.5684C434.19 71.5646 434.208 71.5608 434.225 71.557C434.243 71.5532 434.261 71.5494 434.278 71.5456C434.296 71.5418 434.313 71.538 434.331 71.5342C434.348 71.5304 434.366 71.5266 434.383 71.5228C434.401 71.519 434.418 71.5152 434.436 71.5115C434.453 71.5077 434.47 71.5039 434.488 71.5001C434.505 71.4964 434.523 71.4926 434.54 71.4888C434.557 71.4851 434.575 71.4813 434.592 71.4776C434.609 71.4738 434.627 71.4701 434.644 71.4663C434.661 71.4626 434.679 71.4588 434.696 71.4551C434.713 71.4513 434.73 71.4476 434.748 71.4439C434.765 71.4402 434.782 71.4364 434.799 71.4327C434.816 71.429 434.834 71.4253 434.851 71.4215C434.868 71.4178 434.885 71.4141 434.902 71.4104C434.919 71.4067 434.936 71.403 434.954 71.3993C434.971 71.3956 434.988 71.3919 435.005 71.3882C435.022 71.3845 435.039 71.3808 435.056 71.3771C435.073 71.3734 435.09 71.3698 435.107 71.3661C435.124 71.3624 435.141 71.3587 435.158 71.3551C435.175 71.3514 435.192 71.3477 435.209 71.3441C435.225 71.3404 435.242 71.3367 435.259 71.3331C435.276 71.3294 435.293 71.3258 435.31 71.3221C435.327 71.3185 435.343 71.3148 435.36 71.3112C435.377 71.3076 435.394 71.3039 435.411 71.3003C435.427 71.2967 435.444 71.293 435.461 71.2894C435.478 71.2858 435.494 71.2822 435.511 71.2785C435.528 71.2749 435.545 71.2713 435.561 71.2677C435.578 71.2641 435.594 71.2605 435.611 71.2569C435.628 71.2533 435.644 71.2497 435.661 71.2461C435.678 71.2425 435.694 71.2389 435.711 71.2353C435.727 71.2317 435.744 71.2281 435.76 71.2246C435.777 71.221 435.793 71.2174 435.81 71.2138C435.826 71.2103 435.843 71.2067 435.859 71.2031C435.876 71.1996 435.892 71.196 435.909 71.1924C435.925 71.1889 435.941 71.1853 435.958 71.1818C435.974 71.1782 435.991 71.1747 436.007 71.1712C436.023 71.1676 436.04 71.1641 436.056 71.1605C436.072 71.157 436.089 71.1535 436.105 71.1499C436.121 71.1464 436.137 71.1429 436.154 71.1394C436.17 71.1359 436.186 71.1323 436.202 71.1288C436.219 71.1253 436.235 71.1218 436.251 71.1183C436.267 71.1148 436.283 71.1113 436.299 71.1078C436.316 71.1043 436.332 71.1008 436.348 71.0973C436.364 71.0939 436.38 71.0904 436.396 71.0869C436.412 71.0834 436.428 71.0799 436.444 71.0765C436.46 71.073 436.476 71.0695 436.492 71.066C436.508 71.0626 436.524 71.0591 436.54 71.0557C436.556 71.0522 436.572 71.0488 436.588 71.0453C436.604 71.0419 436.62 71.0384 436.636 71.035C436.652 71.0315 436.668 71.0281 436.683 71.0246C436.699 71.0212 436.715 71.0178 436.731 71.0144C436.747 71.0109 436.763 71.0075 436.778 71.0041C436.794 71.0007 436.81 70.9972 436.826 70.9938C436.842 70.9904 436.857 70.987 436.873 70.9836C436.889 70.9802 436.904 70.9768 436.92 70.9734C436.936 70.97 436.951 70.9666 436.967 70.9632C436.983 70.9598 436.998 70.9565 437.014 70.9531C437.03 70.9497 437.045 70.9463 437.061 70.9429C437.076 70.9396 437.092 70.9362 437.107 70.9328C437.123 70.9295 437.139 70.9261 437.154 70.9227C437.17 70.9194 437.185 70.916 437.201 70.9127C437.216 70.9093 437.231 70.906 437.247 70.9026C437.262 70.8993 437.278 70.8959 437.293 70.8926C437.309 70.8893 437.324 70.8859 437.339 70.8826C437.355 70.8793 437.37 70.876 437.385 70.8726C437.401 70.8693 437.416 70.866 437.431 70.8627C437.447 70.8594 437.462 70.8561 437.477 70.8528C437.492 70.8494 437.508 70.8461 437.523 70.8428C437.538 70.8396 437.553 70.8363 437.569 70.833C437.584 70.8297 437.599 70.8264 437.614 70.8231C437.629 70.8198 437.644 70.8165 437.66 70.8133C437.675 70.81 437.69 70.8067 437.705 70.8035C437.72 70.8002 437.735 70.7969 437.75 70.7937C437.765 70.7904 437.78 70.7871 437.795 70.7839C437.81 70.7806 437.825 70.7774 437.84 70.7741C437.855 70.7709 437.87 70.7677 437.885 70.7644C437.9 70.7612 437.915 70.758 437.93 70.7547C437.945 70.7515 437.96 70.7483 437.975 70.745C437.989 70.7418 438.004 70.7386 438.019 70.7354C438.034 70.7322 438.049 70.729 438.064 70.7258C438.078 70.7225 438.093 70.7193 438.108 70.7161C438.123 70.7129 438.138 70.7097 438.152 70.7066C438.167 70.7034 438.182 70.7002 438.196 70.697C438.211 70.6938 438.226 70.6906 438.241 70.6875C438.255 70.6843 438.27 70.6811 438.284 70.6779C438.299 70.6748 438.314 70.6716 438.328 70.6684C438.343 70.6653 438.357 70.6621 438.372 70.659C438.387 70.6558 438.401 70.6527 438.416 70.6495C438.43 70.6464 438.445 70.6432 438.459 70.6401C438.474 70.6369 438.488 70.6338 438.503 70.6307C438.517 70.6276 438.532 70.6244 438.546 70.6213C438.56 70.6182 438.575 70.6151 438.589 70.6119C438.604 70.6088 438.618 70.6057 438.632 70.6026C438.647 70.5995 438.661 70.5964 438.675 70.5933C438.69 70.5902 438.704 70.5871 438.718 70.584C438.732 70.5809 438.747 70.5778 438.761 70.5747C438.775 70.5716 438.789 70.5686 438.804 70.5655C438.818 70.5624 438.832 70.5593 438.846 70.5563C438.86 70.5532 438.875 70.5501 438.889 70.5471C438.903 70.544 438.917 70.5409 438.931 70.5379C438.945 70.5348 438.959 70.5318 438.973 70.5287C438.987 70.5257 439.002 70.5226 439.016 70.5196C439.03 70.5166 439.044 70.5135 439.058 70.5105C439.072 70.5075 439.086 70.5044 439.1 70.5014C439.114 70.4984 439.127 70.4954 439.141 70.4924C439.155 70.4893 439.169 70.4863 439.183 70.4833C439.197 70.4803 439.211 70.4773 439.225 70.4743C439.239 70.4713 439.253 70.4683 439.266 70.4653C439.28 70.4623 439.294 70.4593 439.308 70.4563C439.322 70.4533 439.335 70.4504 439.349 70.4474C439.363 70.4444 439.377 70.4414 439.39 70.4385C439.404 70.4355 439.418 70.4325 439.431 70.4296C439.445 70.4266 439.459 70.4236 439.472 70.4207C439.486 70.4177 439.5 70.4148 439.513 70.4118C439.527 70.4089 439.541 70.4059 439.554 70.403C439.568 70.4 439.581 70.3971 439.595 70.3942C439.608 70.3912 439.622 70.3883 439.635 70.3854C439.649 70.3825 439.662 70.3795 439.676 70.3766C439.689 70.3737 439.703 70.3708 439.716 70.3679C439.73 70.365 439.743 70.3621 439.756 70.3592C439.77 70.3562 439.783 70.3533 439.797 70.3505C439.81 70.3476 439.823 70.3447 439.837 70.3418C439.85 70.3389 439.863 70.336 439.877 70.3331C439.89 70.3302 439.903 70.3274 439.917 70.3245C439.93 70.3216 439.943 70.3188 439.956 70.3159C439.969 70.313 439.983 70.3102 439.996 70.3073C440.009 70.3044 440.022 70.3016 440.035 70.2987C440.049 70.2959 440.062 70.293 440.075 70.2902C440.088 70.2874 440.101 70.2845 440.114 70.2817C440.127 70.2789 440.14 70.276 440.153 70.2732C440.166 70.2704 440.179 70.2675 440.193 70.2647C440.206 70.2619 440.219 70.2591 440.232 70.2563C440.244 70.2535 440.257 70.2507 440.27 70.2479C440.283 70.2451 440.296 70.2423 440.309 70.2395C440.322 70.2367 440.335 70.2339 440.348 70.2311C440.361 70.2283 440.374 70.2255 440.386 70.2227C440.399 70.2199 440.412 70.2172 440.425 70.2144C440.438 70.2116 440.451 70.2088 440.463 70.2061C440.476 70.2033 440.489 70.2006 440.502 70.1978C440.514 70.195 440.527 70.1923 440.54 70.1895C440.552 70.1868 440.565 70.184 440.578 70.1813C440.59 70.1785 440.603 70.1758 440.616 70.1731C440.628 70.1703 440.641 70.1676 440.654 70.1649C440.666 70.1621 440.679 70.1594 440.691 70.1567C440.704 70.154 440.716 70.1513 440.729 70.1485C440.742 70.1458 440.754 70.1431 440.767 70.1404C440.779 70.1377 440.791 70.135 440.804 70.1323C440.816 70.1296 440.829 70.1269 440.841 70.1242C440.854 70.1215 440.866 70.1189 440.878 70.1162C440.891 70.1135 440.903 70.1108 440.916 70.1081C440.928 70.1055 440.94 70.1028 440.953 70.1001C440.965 70.0975 440.977 70.0948 440.989 70.0921C441.002 70.0895 441.014 70.0868 441.026 70.0842C441.039 70.0815 441.051 70.0789 441.063 70.0762C441.075 70.0736 441.087 70.0709 441.1 70.0683C441.112 70.0657 441.124 70.063 441.136 70.0604C441.148 70.0578 441.16 70.0551 441.172 70.0525C441.185 70.0499 441.197 70.0473 441.209 70.0447C441.221 70.042 441.233 70.0394 441.245 70.0368C441.257 70.0342 441.269 70.0316 441.281 70.029C441.293 70.0264 441.305 70.0238 441.317 70.0212C441.329 70.0186 441.341 70.0161 441.353 70.0135C441.365 70.0109 441.377 70.0083 441.388 70.0057C441.4 70.0032 441.412 70.0006 441.424 69.998C441.436 69.9954 441.448 69.9929 441.46 69.9903C441.471 69.9878 441.483 69.9852 441.495 69.9827C441.507 69.9801 441.519 69.9775 441.53 69.975C441.542 69.9725 441.554 69.9699 441.566 69.9674C441.577 69.9648 441.589 69.9623 441.601 69.9598C441.612 69.9572 441.624 69.9547 441.636 69.9522C441.647 69.9497 441.659 69.9471 441.671 69.9446C441.682 69.9421 441.694 69.9396 441.705 69.9371C441.717 69.9346 441.729 69.9321 441.74 69.9296C441.752 69.9271 441.763 69.9246 441.775 69.9221C441.786 69.9196 441.798 69.9171 441.809 69.9146C441.821 69.9121 441.832 69.9097 441.844 69.9072C441.855 69.9047 441.866 69.9022 441.878 69.8998C441.889 69.8973 441.901 69.8948 441.912 69.8924C441.923 69.8899 441.935 69.8874 441.946 69.885C441.957 69.8825 441.969 69.8801 441.98 69.8776C441.991 69.8752 442.003 69.8727 442.014 69.8703C442.025 69.8679 442.036 69.8654 442.048 69.863C442.059 69.8606 442.07 69.8581 442.081 69.8557C442.092 69.8533 442.104 69.8509 442.115 69.8485C442.126 69.846 442.137 69.8436 442.148 69.8412C442.159 69.8388 442.17 69.8364 442.181 69.834C442.193 69.8316 442.204 69.8292 442.215 69.8268C442.226 69.8244 442.237 69.822 442.248 69.8196C442.259 69.8173 442.27 69.8149 442.281 69.8125C442.292 69.8101 442.303 69.8077 442.314 69.8054C442.325 69.803 442.336 69.8006 442.346 69.7983C442.357 69.7959 442.368 69.7935 442.379 69.7912C442.39 69.7888 442.401 69.7865 442.412 69.7841C442.423 69.7818 442.433 69.7794 442.444 69.7771C442.455 69.7748 442.466 69.7724 442.477 69.7701C442.487 69.7678 442.498 69.7654 442.509 69.7631C442.52 69.7608 442.53 69.7585 442.541 69.7561C442.552 69.7538 442.562 69.7515 442.573 69.7492C442.584 69.7469 442.594 69.7446 442.605 69.7423C442.616 69.74 442.626 69.7377 442.637 69.7354C442.647 69.7331 442.658 69.7308 442.669 69.7285C442.679 69.7262 442.69 69.7239 442.7 69.7217C442.711 69.7194 442.721 69.7171 442.732 69.7148C442.742 69.7126 442.753 69.7103 442.763 69.708C442.774 69.7058 442.784 69.7035 442.795 69.7012C442.805 69.699 442.815 69.6967 442.826 69.6945C442.836 69.6922 442.846 69.69 442.857 69.6877C442.867 69.6855 442.878 69.6833 442.888 69.681C442.898 69.6788 442.908 69.6766 442.919 69.6743C442.929 69.6721 442.939 69.6699 442.95 69.6677C442.96 69.6654 442.97 69.6632 442.98 69.661C442.99 69.6588 443.001 69.6566 443.011 69.6544C443.021 69.6522 443.031 69.65 443.041 69.6478C443.051 69.6456 443.062 69.6434 443.072 69.6412C443.082 69.639 443.092 69.6368 443.102 69.6347C443.112 69.6325 443.122 69.6303 443.132 69.6281C443.142 69.626 443.152 69.6238 443.162 69.6216C443.172 69.6195 443.182 69.6173 443.192 69.6151C443.202 69.613 443.212 69.6108 443.222 69.6087C443.232 69.6065 443.242 69.6044 443.252 69.6022C443.262 69.6001 443.271 69.5979 443.281 69.5958C443.291 69.5937 443.301 69.5915 443.311 69.5894C443.321 69.5873 443.33 69.5852 443.34 69.583C443.35 69.5809 443.36 69.5788 443.37 69.5767C443.379 69.5746 443.389 69.5725 443.399 69.5704C443.409 69.5683 443.418 69.5662 443.428 69.5641C443.438 69.562 443.447 69.5599 443.457 69.5578C443.467 69.5557 443.476 69.5536 443.486 69.5515C443.495 69.5494 443.505 69.5474 443.515 69.5453C443.524 69.5432 443.534 69.5411 443.543 69.5391C443.553 69.537 443.562 69.5349 443.572 69.5329C443.581 69.5308 443.591 69.5288 443.6 69.5267C443.61 69.5247 443.619 69.5226 443.629 69.5206C443.638 69.5185 443.648 69.5165 443.657 69.5145C443.666 69.5124 443.676 69.5104 443.685 69.5084C443.695 69.5063 443.704 69.5043 443.713 69.5023C443.723 69.5003 443.732 69.4982 443.741 69.4962C443.75 69.4942 443.76 69.4922 443.769 69.4902C443.778 69.4882 443.788 69.4862 443.797 69.4842C443.806 69.4822 443.815 69.4802 443.824 69.4782C443.834 69.4762 443.843 69.4742 443.852 69.4722C443.861 69.4703 443.87 69.4683 443.879 69.4663C443.888 69.4643 443.898 69.4624 443.907 69.4604C443.916 69.4584 443.925 69.4565 443.934 69.4545C443.943 69.4525 443.952 69.4506 443.961 69.4486C443.97 69.4467 443.979 69.4447 443.988 69.4428C443.997 69.4408 444.006 69.4389 444.015 69.437C444.024 69.435 444.033 69.4331 444.042 69.4311C444.051 69.4292 444.059 69.4273 444.068 69.4254C444.077 69.4234 444.086 69.4215 444.095 69.4196C444.104 69.4177 444.113 69.4158 444.121 69.4139C444.13 69.412 444.139 69.4101 444.148 69.4082C444.157 69.4063 444.165 69.4044 444.174 69.4025C444.183 69.4006 444.192 69.3987 444.2 69.3968C444.209 69.3949 444.218 69.393 444.226 69.3912C444.235 69.3893 444.244 69.3874 444.252 69.3856C444.261 69.3837 444.269 69.3818 444.278 69.38C444.287 69.3781 444.295 69.3762 444.304 69.3744C444.312 69.3725 444.321 69.3707 444.329 69.3688C444.338 69.367 444.346 69.3651 444.355 69.3633C444.363 69.3615 444.372 69.3596 444.38 69.3578C444.389 69.356 444.397 69.3541 444.406 69.3523C444.414 69.3505 444.423 69.3487 444.431 69.3469C444.439 69.345 444.448 69.3432 444.456 69.3414C444.464 69.3396 444.473 69.3378 444.481 69.336C444.489 69.3342 444.498 69.3324 444.506 69.3306C444.514 69.3288 444.522 69.327 444.531 69.3252C444.539 69.3235 444.547 69.3217 444.555 69.3199C444.564 69.3181 444.572 69.3163 444.58 69.3146C444.588 69.3128 444.596 69.311 444.604 69.3093C444.613 69.3075 444.621 69.3057 444.629 69.304C444.637 69.3022 444.645 69.3005 444.653 69.2987C444.661 69.297 444.669 69.2952 444.677 69.2935C444.685 69.2918 444.693 69.29 444.701 69.2883C444.709 69.2866 444.717 69.2848 444.725 69.2831C444.733 69.2814 444.741 69.2797 444.749 69.2779C444.757 69.2762 444.765 69.2745 444.773 69.2728C444.781 69.2711 444.789 69.2694 444.797 69.2677C444.804 69.266 444.812 69.2643 444.82 69.2626C444.828 69.2609 444.836 69.2592 444.843 69.2575C444.851 69.2558 444.859 69.2541 444.867 69.2525C444.875 69.2508 444.882 69.2491 444.89 69.2474C444.898 69.2458 444.905 69.2441 444.913 69.2424C444.921 69.2408 444.928 69.2391 444.936 69.2375C444.944 69.2358 444.951 69.2341 444.959 69.2325C444.967 69.2308 444.974 69.2292 444.982 69.2276C444.989 69.2259 444.997 69.2243 445.004 69.2226C445.012 69.221 445.02 69.2194 445.027 69.2178C445.035 69.2161 445.042 69.2145 445.05 69.2129C445.057 69.2113 445.064 69.2097 445.072 69.208C445.079 69.2064 445.087 69.2048 445.094 69.2032C445.102 69.2016 445.109 69.2 445.116 69.1984C445.124 69.1968 445.131 69.1952 445.138 69.1936C445.146 69.1921 445.153 69.1905 445.16 69.1889C445.168 69.1873 445.175 69.1857 445.182 69.1842C445.189 69.1826 445.197 69.181 445.204 69.1795C445.211 69.1779 445.218 69.1763 445.226 69.1748C445.233 69.1732 445.24 69.1717 445.247 69.1701C445.254 69.1686 445.261 69.167 445.269 69.1655C445.276 69.1639 445.283 69.1624 445.29 69.1608C445.297 69.1593 445.304 69.1578 445.311 69.1563C445.318 69.1547 445.325 69.1532 445.332 69.1517C445.339 69.1502 445.346 69.1486 445.353 69.1471C445.36 69.1456 445.367 69.1441 445.374 69.1426C445.381 69.1411 445.388 69.1396 445.395 69.1381C445.402 69.1366 445.409 69.1351 445.416 69.1336C445.422 69.1321 445.429 69.1306 445.436 69.1292C445.443 69.1277 445.45 69.1262 445.457 69.1247C445.463 69.1233 445.47 69.1218 445.477 69.1203C445.484 69.1189 445.49 69.1174 445.497 69.1159C445.504 69.1145 445.511 69.113 445.517 69.1116C445.524 69.1101 445.531 69.1087 445.537 69.1072C445.544 69.1058 445.551 69.1043 445.557 69.1029C445.564 69.1015 445.571 69.1 445.577 69.0986C445.584 69.0972 445.59 69.0958 445.597 69.0943C445.604 69.0929 445.61 69.0915 445.617 69.0901C445.623 69.0887 445.63 69.0873 445.636 69.0858C445.643 69.0844 445.649 69.083 445.656 69.0816C445.662 69.0802 445.668 69.0789 445.675 69.0775C445.681 69.0761 445.688 69.0747 445.694 69.0733C445.7 69.0719 445.707 69.0705 445.713 69.0692C445.72 69.0678 445.726 69.0664 445.732 69.065C445.739 69.0637 445.745 69.0623 445.751 69.061C445.757 69.0596 445.764 69.0582 445.77 69.0569C445.776 69.0555 445.782 69.0542 445.789 69.0528C445.795 69.0515 445.801 69.0502 445.807 69.0488C445.813 69.0475 445.82 69.0461 445.826 69.0448C445.832 69.0435 445.838 69.0422 445.844 69.0408C445.85 69.0395 445.856 69.0382 445.862 69.0369C445.868 69.0356 445.874 69.0343 445.88 69.0329C445.886 69.0316 445.892 69.0303 445.898 69.029C445.904 69.0277 445.91 69.0264 445.916 69.0251C445.922 69.0239 445.928 69.0226 445.934 69.0213C445.94 69.02 445.946 69.0187 445.952 69.0174C445.958 69.0162 445.964 69.0149 445.97 69.0136C445.976 69.0124 445.981 69.0111 445.987 69.0098C445.993 69.0086 445.999 69.0073 446.005 69.0061C446.01 69.0048 446.016 69.0035 446.022 69.0023C446.028 69.0011 446.033 68.9998 446.039 68.9986C446.045 68.9973 446.051 68.9961 446.056 68.9949C446.062 68.9936 446.068 68.9924 446.073 68.9912C446.079 68.99 446.085 68.9887 446.09 68.9875C446.096 68.9863 446.101 68.9851 446.107 68.9839C446.113 68.9827 446.118 68.9815 446.124 68.9803C446.129 68.9791 446.135 68.9779 446.14 68.9767C446.146 68.9755 446.151 68.9743 446.157 68.9731C446.162 68.9719 446.168 68.9708 446.173 68.9696C446.179 68.9684 446.184 68.9672 446.189 68.9661C446.195 68.9649 446.2 68.9637 446.205 68.9626C446.211 68.9614 446.216 68.9602 446.222 68.9591C446.227 68.9579 446.232 68.9568 446.237 68.9556C446.243 68.9545 446.248 68.9533 446.253 68.9522C446.259 68.9511 446.264 68.9499 446.269 68.9488C446.274 68.9477 446.28 68.9465 446.285 68.9454C446.29 68.9443 446.295 68.9432 446.3 68.942C446.305 68.9409 446.311 68.9398 446.316 68.9387C446.321 68.9376 446.326 68.9365 446.331 68.9354C446.336 68.9343 446.341 68.9332 446.346 68.9321C446.351 68.931 446.356 68.9299 446.361 68.9288C446.366 68.9277 446.371 68.9266 446.376 68.9256C446.381 68.9245 446.386 68.9234 446.391 68.9223C446.396 68.9213 446.401 68.9202 446.406 68.9191C446.411 68.9181 446.416 68.917 446.421 68.916C446.426 68.9149 446.43 68.9138 446.435 68.9128C446.44 68.9117 446.445 68.9107 446.45 68.9097C446.455 68.9086 446.459 68.9076 446.464 68.9065C446.469 68.9055 446.474 68.9045 446.478 68.9035C446.483 68.9024 446.488 68.9014 446.493 68.9004C446.497 68.8994 446.502 68.8984 446.507 68.8973C446.511 68.8963 446.516 68.8953 446.521 68.8943C446.525 68.8933 446.53 68.8923 446.534 68.8913C446.539 68.8903 446.544 68.8893 446.548 68.8884C446.553 68.8874 446.557 68.8864 446.562 68.8854C446.566 68.8844 446.571 68.8834 446.575 68.8825C446.58 68.8815 446.584 68.8805 446.589 68.8796C446.593 68.8786 446.598 68.8776 446.602 68.8767C446.606 68.8757 446.611 68.8748 446.615 68.8738C446.62 68.8729 446.624 68.8719 446.628 68.871C446.633 68.87 446.637 68.8691 446.641 68.8682C446.646 68.8672 446.65 68.8663 446.654 68.8654C446.659 68.8644 446.663 68.8635 446.667 68.8626C446.671 68.8617 446.675 68.8608 446.68 68.8599C446.684 68.8589 446.688 68.858 446.692 68.8571C446.696 68.8562 446.701 68.8553 446.705 68.8544C446.709 68.8535 446.713 68.8526 446.717 68.8518C446.721 68.8509 446.725 68.85 446.729 68.8491C446.733 68.8482 446.738 68.8473 446.742 68.8465C446.746 68.8456 446.75 68.8447 446.754 68.8439C446.758 68.843 446.762 68.8421 446.766 68.8413C446.77 68.8404 446.773 68.8396 446.777 68.8387C446.781 68.8378 446.785 68.837 446.789 68.8362C446.793 68.8353 446.797 68.8345 446.801 68.8336C446.805 68.8328 446.808 68.832 446.812 68.8311C446.816 68.8303 446.82 68.8295 446.824 68.8287C446.828 68.8278 446.831 68.827 446.835 68.8262C446.839 68.8254 446.843 68.8246 446.846 68.8238C446.85 68.823 446.854 68.8222 446.857 68.8214C446.861 68.8206 446.865 68.8198 446.868 68.819C446.872 68.8182 446.876 68.8174 446.879 68.8166C446.883 68.8159 446.886 68.8151 446.89 68.8143C446.894 68.8135 446.897 68.8128 446.901 68.812C446.904 68.8112 446.908 68.8105 446.911 68.8097C446.915 68.8089 446.918 68.8082 446.922 68.8074C446.925 68.8067 446.929 68.8059 446.932 68.8052C446.936 68.8044 446.939 68.8037 446.942 68.803C446.946 68.8022 446.949 68.8015 446.953 68.8008C446.956 68.8 446.959 68.7993 446.963 68.7986C446.966 68.7979 446.969 68.7971 446.973 68.7964C446.976 68.7957 446.979 68.795 446.982 68.7943C446.986 68.7936 446.989 68.7929 446.992 68.7922C446.995 68.7915 446.999 68.7908 447.002 68.7901C447.005 68.7894 447.008 68.7887 447.011 68.788C447.014 68.7874 447.018 68.7867 447.021 68.786C447.024 68.7853 447.027 68.7847 447.03 68.784C447.033 68.7833 447.036 68.7826 447.039 68.782C447.042 68.7813 447.045 68.7807 447.048 68.78C447.051 68.7794 447.054 68.7787 447.057 68.7781C447.06 68.7774 447.063 68.7768 447.066 68.7761C447.069 68.7755 447.072 68.7749 447.075 68.7742C447.078 68.7736 447.081 68.773 447.084 68.7724C447.087 68.7717 447.089 68.7711 447.092 68.7705C447.095 68.7699 447.098 68.7693 447.101 68.7687C447.104 68.7681 447.106 68.7674 447.109 68.7668C447.112 68.7662 447.115 68.7657 447.117 68.7651C447.12 68.7645 447.123 68.7639 447.126 68.7633C447.128 68.7627 447.131 68.7621 447.134 68.7615C447.136 68.761 447.139 68.7604 447.142 68.7598C447.144 68.7593 447.147 68.7587 447.149 68.7581C447.152 68.7576 447.155 68.757 447.157 68.7565C447.16 68.7559 447.162 68.7553 447.165 68.7548C447.167 68.7543 447.17 68.7537 447.172 68.7532C447.175 68.7526 447.177 68.7521 447.18 68.7516C447.182 68.751 447.185 68.7505 447.187 68.75C447.19 68.7495 447.192 68.7489 447.194 68.7484C447.197 68.7479 447.199 68.7474 447.201 68.7469C447.204 68.7464 447.206 68.7459 447.208 68.7454C447.211 68.7449 447.213 68.7444 447.215 68.7439C447.218 68.7434 447.22 68.7429 447.222 68.7424C447.224 68.7419 447.227 68.7414 447.229 68.7409C447.231 68.7405 447.233 68.74 447.235 68.7395C447.238 68.7391 447.24 68.7386 447.242 68.7381C447.244 68.7377 447.246 68.7372 447.248 68.7367C447.25 68.7363 447.252 68.7358 447.254 68.7354C447.257 68.7349 447.259 68.7345 447.261 68.7341C447.263 68.7336 447.265 68.7332 447.267 68.7327C447.269 68.7323 447.271 68.7319 447.273 68.7315C447.275 68.731 447.277 68.7306 447.278 68.7302C447.28 68.7298 447.282 68.7294 447.284 68.7289C447.286 68.7285 447.288 68.7281 447.29 68.7277C447.292 68.7273 447.294 68.7269 447.295 68.7265C447.297 68.7261 447.299 68.7257 447.301 68.7254C447.303 68.725 447.304 68.7246 447.306 68.7242C447.308 68.7238 447.31 68.7234 447.311 68.7231C447.313 68.7227 447.315 68.7223 447.316 68.722C447.318 68.7216 447.32 68.7212 447.321 68.7209C447.323 68.7205 447.325 68.7202 447.326 68.7198C447.328 68.7195 447.33 68.7191 447.331 68.7188C447.333 68.7184 447.334 68.7181 447.336 68.7178C447.337 68.7174 447.339 68.7171 447.34 68.7168C447.342 68.7165 447.343 68.7161 447.345 68.7158C447.346 68.7155 447.348 68.7152 447.349 68.7149C447.351 68.7146 447.352 68.7142 447.353 68.7139C447.355 68.7136 447.356 68.7133 447.358 68.713C447.359 68.7127 447.36 68.7125 447.362 68.7122C447.363 68.7119 447.364 68.7116 447.366 68.7113C447.367 68.711 447.368 68.7108 447.369 68.7105C447.371 68.7102 447.372 68.7099 447.373 68.7097C447.374 68.7094 447.376 68.7091 447.377 68.7089C447.378 68.7086 447.379 68.7084 447.38 68.7081C447.382 68.7079 447.383 68.7076 447.384 68.7074C447.385 68.7071 447.386 68.7069 447.387 68.7067C447.388 68.7064 447.389 68.7062 447.39 68.706C447.391 68.7057 447.392 68.7055 447.393 68.7053C447.394 68.7051 447.395 68.7049 447.396 68.7046C447.397 68.7044 447.398 68.7042 447.399 68.704C447.4 68.7038 447.401 68.7036 447.402 68.7034C447.403 68.7032 447.404 68.703 447.405 68.7028C447.406 68.7026 447.407 68.7025 447.407 68.7023C447.408 68.7021 447.409 68.7019 447.41 68.7017C447.411 68.7016 447.411 68.7014 447.412 68.7012C447.413 68.7011 447.414 68.7009 447.414 68.7007C447.415 68.7006 447.416 68.7004 447.417 68.7003C447.417 68.7001 447.418 68.7 447.419 68.6998C447.419 68.6997 447.42 68.6995 447.421 68.6994C447.421 68.6993 447.422 68.6991 447.422 68.699C447.423 68.6989 447.424 68.6987 447.424 68.6986C447.425 68.6985 447.425 68.6984 447.426 68.6983C447.426 68.6982 447.427 68.698 447.427 68.6979C447.428 68.6978 447.428 68.6977 447.429 68.6976C447.429 68.6975 447.43 68.6974 447.43 68.6973C447.431 68.6973 447.431 68.6972 447.431 68.6971C447.432 68.697 447.432 68.6969 447.432 68.6968C447.433 68.6968 447.433 68.6967 447.433 68.6966C447.434 68.6966 447.434 68.6965 447.434 68.6964C447.435 68.6964 447.435 68.6963 447.435 68.6963C447.435 68.6962 447.436 68.6962 447.436 68.6961C447.436 68.6961 447.436 68.696 447.436 68.696C447.437 68.696 447.437 68.6959 447.437 68.6959C447.437 68.6959 447.437 68.6958 447.437 68.6958C447.437 68.6958 447.437 68.6958 447.437 68.6958C447.438 68.6957 447.438 68.6957 447.438 68.6957C447.438 68.6957 447.438 68.6957 446.803 65.7637ZM432.378 65.818C427.959 66.7606 423.396 67.7911 418.688 68.9093L420.074 74.7469C424.741 73.6386 429.259 72.6183 433.63 71.6859L432.378 65.818ZM416.381 71.7667L415.151 131.884L421.15 132.007L422.38 71.8895L416.381 71.7667ZM417.886 128.957L398.023 130.715L398.552 136.691L418.415 134.934L417.886 128.957ZM401.286 133.642L399.88 64.7357L393.881 64.8581L395.288 133.764L401.286 133.642ZM463.678 128.693L464.473 125.801C464.409 125.783 464.343 125.767 464.278 125.754L463.678 128.693ZM458.404 121.047L455.433 121.458L455.434 121.471L458.404 121.047ZM460.426 56.3594L457.48 55.7928L457.479 55.7974L460.426 56.3594ZM464.82 50.5586L464.12 47.6414C464.022 47.665 463.925 47.6936 463.829 47.727L464.82 50.5586ZM473.609 48.4492L474.309 51.3664L474.316 51.3649L473.609 48.4492ZM500.943 43.3516L501.32 46.3278C502.819 46.1379 503.943 44.8627 503.943 43.3516H500.943ZM500.943 7.31641L500.397 4.36664C498.975 4.63017 497.943 5.87041 497.943 7.31641H500.943ZM521.334 3.53711L524.334 3.49807C524.322 2.61361 523.921 1.77931 523.237 1.21814C522.554 0.656979 521.657 0.42615 520.787 0.587348L521.334 3.53711ZM521.861 44.0547L524.86 44.1443C524.861 44.1014 524.862 44.0585 524.861 44.0156L521.861 44.0547ZM520.016 105.842L520.299 108.828C521.805 108.686 522.969 107.444 523.014 105.931L520.016 105.842ZM501.471 107.6L498.471 107.646C498.484 108.483 498.846 109.276 499.469 109.834C500.093 110.393 500.921 110.665 501.754 110.586L501.471 107.6ZM500.768 62.4238L503.767 62.3771C503.754 61.551 503.401 60.7668 502.792 60.2094C502.182 59.652 501.369 59.3708 500.545 59.4321L500.768 62.4238ZM480.816 66.7305L479.757 63.9237C478.752 64.3029 478.027 65.1904 477.855 66.2507L480.816 66.7305ZM478.971 112.521L475.999 112.931C476.164 114.131 477.034 115.113 478.205 115.422L478.971 112.521ZM505.162 117.443L504.767 120.417L504.769 120.417L505.162 117.443ZM526.168 120.432L529.051 121.263C529.287 120.442 529.163 119.559 528.708 118.835C528.253 118.112 527.511 117.616 526.669 117.474L526.168 120.432ZM520.719 139.328L520.253 142.292C521.747 142.527 523.182 141.613 523.601 140.159L520.719 139.328ZM478.619 132.297L477.999 135.232L478.006 135.234L478.619 132.297ZM464.278 125.754C463.296 125.554 461.955 124.692 461.374 120.623L455.434 121.471C456.142 126.425 458.317 130.661 463.078 131.633L464.278 125.754ZM461.376 120.635C460.342 113.169 459.822 105.221 459.822 96.7891H453.822C453.822 105.466 454.357 113.691 455.433 121.458L461.376 120.635ZM459.822 96.7891C459.822 82.6002 461.01 69.3133 463.373 56.9213L457.479 55.7974C455.037 68.6007 453.822 82.267 453.822 96.7891H459.822ZM463.372 56.9259C463.815 54.6238 464.738 53.7658 465.811 53.3902L463.829 47.727C460.215 48.992 458.209 52.0012 457.48 55.7928L463.372 56.9259ZM465.52 53.4758L474.309 51.3664L472.909 45.5321L464.12 47.6414L465.52 53.4758ZM474.316 51.3649C483.651 49.1036 492.652 47.4258 501.32 46.3278L500.566 40.3753C491.657 41.5039 482.435 43.2246 472.903 45.5335L474.316 51.3649ZM503.943 43.3516V7.31641H497.943V43.3516H503.943ZM501.49 10.2662L521.881 6.48687L520.787 0.587348L500.397 4.36664L501.49 10.2662ZM518.334 3.57615L518.862 44.0937L524.861 44.0156L524.334 3.49807L518.334 3.57615ZM518.863 43.9651L517.017 105.752L523.014 105.931L524.86 44.1443L518.863 43.9651ZM519.733 102.855L501.188 104.613L501.754 110.586L520.299 108.828L519.733 102.855ZM504.47 107.553L503.767 62.3771L497.768 62.4705L498.471 107.646L504.47 107.553ZM500.545 59.4321C493.189 59.9792 486.255 61.4716 479.757 63.9237L481.876 69.5373C487.8 67.3018 494.166 65.9231 500.99 65.4156L500.545 59.4321ZM477.855 66.2507C476.142 76.8215 475.268 85.6678 475.268 92.7461H481.268C481.268 86.1135 482.092 77.616 483.778 67.2102L477.855 66.2507ZM475.268 92.7461C475.268 102.504 475.498 109.298 475.999 112.931L481.943 112.112C481.506 108.948 481.268 102.558 481.268 92.7461H475.268ZM478.205 115.422C485.685 117.397 494.545 119.058 504.767 120.417L505.557 114.47C495.506 113.133 486.905 111.513 479.736 109.621L478.205 115.422ZM504.769 120.417C514.968 121.766 521.92 122.755 525.667 123.39L526.669 117.474C522.799 116.819 515.746 115.816 505.555 114.469L504.769 120.417ZM523.285 119.6L517.836 138.497L523.601 140.159L529.051 121.263L523.285 119.6ZM521.185 136.365C498.42 132.786 484.474 130.455 479.232 129.36L478.006 135.234C483.429 136.366 497.549 138.722 520.253 142.292L521.185 136.365ZM479.239 129.362C474.018 128.259 469.097 127.072 464.473 125.801L462.882 131.586C467.634 132.893 472.673 134.108 477.999 135.232L479.239 129.362Z" fill="#221E1E" fill-opacity="0.38"/>
</g>
<defs>
<filter id="filter0_d_358_39" x="0.537109" y="0.724609" width="529.631" height="146.604" filterUnits="userSpaceOnUse" color-interpolation-filters="sRGB">
<feFlood flood-opacity="0" result="BackgroundImageFix"/>
<feColorMatrix in="SourceAlpha" type="matrix" values="0 0 0 0 0 0 0 0 0 0 0 0 0 0 0 0 0 0 127 0" result="hardAlpha"/>
<feOffset dy="4"/>
<feGaussianBlur stdDeviation="2"/>
<feComposite in2="hardAlpha" operator="out"/>
<feColorMatrix type="matrix" values="0 0 0 0 0 0 0 0 0 0 0 0 0 0 0 0 0 0 0.35 0"/>
<feBlend mode="normal" in2="BackgroundImageFix" result="effect1_dropShadow_358_39"/>
<feBlend mode="normal" in="SourceGraphic" in2="effect1_dropShadow_358_39" result="shape"/>
</filter>
</defs>
</svg>
